<svg xmlns="http://www.w3.org/2000/svg" width="74" height="74" viewBox="0 0 74 74"><g fill="none" fill-rule="evenodd" transform="translate(1 1)"><g fill="#FF680D" fill-rule="nonzero" transform="translate(22 15)"><path d="M20.667 25.214H18v-3.231c2.473-1.498 3.997-4.264 4-7.26 1.473-.002 2.665-1.257 2.662-2.802-.002-.996-.508-1.916-1.329-2.415a10.796 10.796 0 0 0-.293-2.14c1.657-1.391 1.925-3.928.6-5.666-1.326-1.738-3.743-2.02-5.4-.63C13.648-1.385 8.027.529 5.685 5.347a10.186 10.186 0 0 0-1.018 4.481v.392c-1.267.788-1.685 2.505-.933 3.833.475.841 1.334 1.36 2.266 1.37.253 2.736 1.735 5.187 4 6.561v3.231H7.333C3.283 25.214 0 28.66 0 32.908V42h1.333v-9.092c.002-2.936 1.938-5.482 4.667-6.134l1.333-.16h.334l5.8 8.112a.646.646 0 0 0 1.066 0l5.8-8.113h.334l1.333.161c2.729.652 4.665 3.198 4.667 6.134V42H28v-9.092c0-4.25-3.283-7.694-7.333-7.694zM6 14.024c-.736 0-1.333-.626-1.333-1.399S5.264 11.226 6 11.226v2.798zm17.333-2.098c0 .772-.597 1.398-1.333 1.398v-2.797c.736 0 1.333.626 1.333 1.399zM20.827 1.435c1.382.003 2.503 1.179 2.506 2.63a2.665 2.665 0 0 1-.766 1.888 9.717 9.717 0 0 0-3.127-4.064 2.42 2.42 0 0 1 1.387-.454zm-6.827 0c4.17-.016 7.652 3.333 8 7.693h-.4a14.366 14.366 0 0 1-3.613-5.155.657.657 0 0 0-.866-.391.69.69 0 0 0-.401.482C15.707 8.31 8.367 9.492 6.053 9.757 6.09 5.171 9.628 1.465 14 1.435zM7.333 14.723v-3.728c2.874-.454 8.094-1.713 10.04-5.084a14.57 14.57 0 0 0 3.294 4.245v4.567c0 3.863-2.985 6.994-6.667 6.994s-6.667-3.131-6.667-6.994zM14 33.14l-4.667-6.526h1.334c.368 0 .666-.313.666-.7v-3.287a7.508 7.508 0 0 0 5.334 0v3.288c0 .386.298.7.666.7h1.334L14 33.138z"/><ellipse cx="10.138" cy="11.892" rx="1.448" ry="1.265"/><ellipse cx="18.103" cy="11.892" rx="1.207" ry="1.265"/><path d="M15.977 16.699a3.656 3.656 0 0 1-2.668 1.166h-.757v1.364h.757a4.912 4.912 0 0 0 3.588-1.562l-.92-.968zm-1.977 0v-1.521h-.984L14 11.619l-1.161-.486-1.222 4.562a.917.917 0 0 0 .085.684c.108.19.28.307.465.32H14z"/></g><circle cx="36" cy="36" r="36" stroke="#FF680D" stroke-dasharray="1,1"/></g></svg>