<svg xmlns="http://www.w3.org/2000/svg" width="72" height="72" viewBox="0 0 72 72"><g fill="none" fill-rule="evenodd"><g fill="#FF680D" fill-rule="nonzero" transform="translate(14 15)"><path d="M14.09 14.642a.707.707 0 0 0-.953.094c-.274.317-.636.491-1.022.491-.385 0-.748-.174-1.021-.491a.708.708 0 0 0-.953-.094.61.61 0 0 0-.1.895 2.745 2.745 0 0 0 2.074.963c.79 0 1.546-.35 2.074-.963a.61.61 0 0 0-.1-.895zM9.148 11c-.41 0-.741.285-.741.636v.728c0 .351.332.636.741.636.41 0 .742-.285.742-.636v-.728c0-.351-.332-.636-.742-.636zm5.934 0c-.41 0-.741.285-.741.636v.728c0 .351.332.636.741.636.41 0 .742-.285.742-.636v-.728c0-.351-.332-.636-.742-.636zm20.766 7.642a.707.707 0 0 0-.953.094 1.342 1.342 0 0 1-1.021.491c-.386 0-.749-.174-1.022-.491a.707.707 0 0 0-.953-.094.61.61 0 0 0-.1.895 2.744 2.744 0 0 0 2.075.963c.79 0 1.545-.35 2.074-.963a.61.61 0 0 0-.1-.895zM30.907 14.5c-.41 0-.742.285-.742.636v.728c0 .351.332.636.742.636s.741-.285.741-.636v-.728c0-.351-.332-.636-.741-.636zm5.933 0c-.409 0-.741.285-.741.636v.728c0 .351.332.636.742.636s.741-.285.741-.636v-.728c0-.351-.332-.636-.741-.636z"/><path d="M43.166 27.853L38 25.749c-.028-.012-.053-.026-.08-.04 3.567-.827 5.257-2.21 5.332-2.272a.678.678 0 0 0 .234-.614c-.007-.053-.746-5.384-.746-10.645 0-5.023-4.012-9.11-8.944-9.11-4.932 0-8.944 4.087-8.944 9.11 0 1.377-.06 3.06-.16 4.654l-1.44.732-4.224-2.15c-.012-.007-.025-.011-.037-.017.2-.596.332-1.225.38-1.878a2.205 2.205 0 0 0 1.528-2.108 2.22 2.22 0 0 0-.753-1.67V5.274a3.756 3.756 0 0 0-1.616-3.082C18.19.904 17.055 0 15.72 0H9.698c-3.27 0-5.931 2.71-5.931 6.041v3.7a2.218 2.218 0 0 0-.754 1.67c0 .99.644 1.83 1.528 2.108a7.608 7.608 0 0 0 2.991 5.51v1.855L2.08 22.55C.836 22.93 0 24.074 0 25.397v7.493c0 .371.295.672.66.672h.093v7.766c0 .371.295.672.66.672.363 0 .659-.3.659-.672v-7.766h2.447v7.766c0 .371.295.672.659.672.364 0 .66-.3.66-.672V29.751c0-.588-.17-1.159-.491-1.649L4.22 26.381a.652.652 0 0 0-.914-.186.68.68 0 0 0-.183.93l1.127 1.722c.176.269.269.582.269.904v2.468H1.318v-6.822c0-.725.459-1.353 1.14-1.561l2.264-.692c.788 3.361 3.78 5.815 7.234 5.815a7.298 7.298 0 0 0 3.525-.905 2.15 2.15 0 0 0 1.747.905h.094v.096a6.063 6.063 0 0 0 3.013 5.256v1.095a.096.096 0 0 1-.065.09l-2.459.835a2.965 2.965 0 0 0-1.995 2.82v2.177c0 .371.295.672.659.672.364 0 .66-.3.66-.672v-2.176c0-.703.439-1.324 1.093-1.547l.723-.245a5.155 5.155 0 0 0 4.302 2.339 5.152 5.152 0 0 0 4.302-2.339l.723.245a1.626 1.626 0 0 1 1.094 1.547v2.176c0 .371.295.672.66.672.363 0 .659-.3.659-.672v-2.176a2.965 2.965 0 0 0-1.996-2.82l-2.46-.835a.095.095 0 0 1-.063-.091V34.31a6.049 6.049 0 0 0 2.79-3.624 6.632 6.632 0 0 0 4.835 2.108c2.919 0 5.48-1.922 6.362-4.72l2.517 1.024a1.622 1.622 0 0 1 1.006 1.514v3.14h-2.448v-.863a.665.665 0 0 0-.659-.671c-.364 0-.66.3-.66.671v8.439c0 .37.296.671.66.671.364 0 .66-.3.66-.671v-6.233h1.693v6.233c0 .37.296.671.66.671.364 0 .659-.3.659-.671v-6.233h.094a.65.65 0 0 0 .466-.197.678.678 0 0 0 .193-.474v-3.812c0-1.223-.72-2.306-1.834-2.76zM26.172 12.178c0-4.282 3.42-7.767 7.625-7.767s7.625 3.485 7.625 7.767c0 4.509.534 9.066.707 10.428-.59.393-2.103 1.26-4.66 1.83v-1.069c.35-.202.685-.432 1-.692a7.625 7.625 0 0 0 2.766-5.894c0-3.795-2.695-4.34-5.3-4.867-1.659-.335-3.373-.682-4.738-1.794a.65.65 0 0 0-.698-.081.672.672 0 0 0-.373.605c0 .018-.03 1.785-2.514 2.417a.672.672 0 0 0-.48.815c.089.36.447.578.8.488 2.08-.53 2.928-1.718 3.274-2.61 1.43.862 3.03 1.186 4.472 1.477 2.785.564 4.238.977 4.238 3.55a6.274 6.274 0 0 1-2.276 4.85 5.982 5.982 0 0 1-3.843 1.383 5.99 5.99 0 0 1-3.561-1.166 7.602 7.602 0 0 0-1.805-2.833v-3.001a.674.674 0 0 0-.312-.571.649.649 0 0 0-.642-.03l-1.423.725a71.53 71.53 0 0 0 .118-3.96zm.94 4.922v2.43l-2.385-1.215 2.386-1.215zm-7.718 0l2.385 1.215-2.385 1.215V17.1zm-3.578 7.352v.638a2.223 2.223 0 0 0-.753 1.663 6.005 6.005 0 0 1-3.107.863c-2.867 0-5.348-2.055-5.969-4.858l1.629-.498c.402 2.067 2.195 3.63 4.34 3.63 1.704 0 3.185-.986 3.924-2.427a7.688 7.688 0 0 0-.064.989zm-6.966-3.07v-1.555a7.277 7.277 0 0 0 3.106.694 7.28 7.28 0 0 0 3.107-.694v1.556c0 1.745-1.394 3.165-3.107 3.165-1.71 0-3.101-1.415-3.106-3.156v-.01zm3.106-2.204c-3.374 0-6.119-2.796-6.119-6.233a.665.665 0 0 0-.659-.671.856.856 0 0 1-.847-.863c0-.476.38-.863.847-.863h1.506a.66.66 0 0 0 .626-.459l.605-1.849c1.514-.034 6.21-.251 8.855-1.598a.677.677 0 0 0 .295-.9.654.654 0 0 0-.885-.301c-2.837 1.445-8.684 1.463-8.743 1.463a.66.66 0 0 0-.625.46l-.603 1.841H5.178l-.094.003V6.04c0-2.59 2.07-4.698 4.613-4.698h6.025c.787 0 1.448.578 1.573 1.374a.671.671 0 0 0 .327.48 2.404 2.404 0 0 1 1.206 2.077v3.934a2.044 2.044 0 0 0-.093-.003h-.754c-.364 0-.659.3-.659.672 0 .37.295.671.66.671h.753c.467 0 .847.387.847.863s-.38.863-.847.863c-.365 0-.66.3-.66.671 0 3.437-2.745 6.233-6.119 6.233zm4.425 2.206v-2.356a7.575 7.575 0 0 0 1.694-1.784v1.771a7.595 7.595 0 0 0-1.699 2.555c.003-.062.005-.124.005-.186zm9.859 15.53a3.831 3.831 0 0 1-2.987 1.442c-1.169 0-2.26-.54-2.986-1.443l.42-.142c.578-.196.966-.745.966-1.365v-.535a5.81 5.81 0 0 0 3.2 0v.535c0 .62.389 1.168.966 1.364l.42.143zm2.285-9.298c-.364 0-.659.3-.659.672v.767c0 2.59-2.07 4.698-4.613 4.698-2.543 0-4.612-2.108-4.612-4.698v-.767a.665.665 0 0 0-.66-.672h-.753a.856.856 0 0 1-.847-.863c0-.306.16-.583.426-.74a.658.658 0 0 0 .156-.131c1.63-.048 6.911-.36 10.383-2.381a.678.678 0 0 0 .245-.916.653.653 0 0 0-.9-.25c-3.04 1.77-7.82 2.124-9.557 2.195v-.078a6.32 6.32 0 0 1 1.044-3.478.65.65 0 0 0 .851.243l4.224-2.151 4.224 2.15a.65.65 0 0 0 .851-.242 6.32 6.32 0 0 1 1.044 3.478v.98c0 .239.125.46.328.58a.856.856 0 0 1 .426.741c0 .476-.38.863-.848.863h-.753zm5.272 3.836a5.35 5.35 0 0 1-4.503-2.493c1.187-.009 2.15-.995 2.15-2.206 0-.64-.281-1.248-.753-1.663v-.638c0-.27-.015-.539-.043-.805a7.32 7.32 0 0 0 5.502.317v.983c0 .908.535 1.711 1.362 2.048l1.421.58c-.681 2.294-2.761 3.877-5.136 3.877z"/><path d="M25.464 30.142a.707.707 0 0 0-.953.094c-.274.317-.637.491-1.022.491s-.748-.174-1.022-.491a.708.708 0 0 0-.953-.094.61.61 0 0 0-.099.895 2.745 2.745 0 0 0 2.074.963c.79 0 1.546-.35 2.074-.963a.61.61 0 0 0-.1-.895z"/><ellipse cx="21.016" cy="27.75" rx="1" ry="1"/><ellipse cx="25.467" cy="27.75" rx="1" ry="1"/></g><circle cx="36" cy="36" r="36" stroke="#FF680D" stroke-dasharray="1,1"/></g></svg>