<svg xmlns="http://www.w3.org/2000/svg" width="72" height="72" viewBox="0 0 72 72"><g fill="none" fill-rule="evenodd"><circle cx="36" cy="36" r="36" stroke="#FF680D" stroke-dasharray="1,1"/><g fill="#FF680D" fill-rule="nonzero"><path d="M28.123 40.267c.372 0 .721.15.984.423a.745.745 0 0 0 1.078 0 .812.812 0 0 0 0-1.118 2.845 2.845 0 0 0-2.062-.886c-.78 0-1.512.314-2.063.886a.812.812 0 0 0 0 1.118.742.742 0 0 0 1.078 0c.263-.273.613-.423.985-.423zm13.715-.695a.812.812 0 0 0 0 1.118.742.742 0 0 0 1.077 0 1.359 1.359 0 0 1 1.97 0 .746.746 0 0 0 1.077 0 .812.812 0 0 0 0-1.118 2.845 2.845 0 0 0-4.124 0zm2.058 7.799c-4.348 4.512-11.422 4.512-15.77 0a.742.742 0 0 0-1.077 0 .812.812 0 0 0 0 1.118c2.471 2.564 5.717 3.846 8.962 3.846 3.246 0 6.492-1.282 8.963-3.846a.812.812 0 0 0 0-1.118.743.743 0 0 0-1.078 0z"/><path d="M53.989 41.119c0-2.148-1.497-3.938-3.464-4.312V23.581c0-1.716-.822-3.306-2.2-4.255a4.757 4.757 0 0 0-4.354-.562l-4.783-1.684c-3.676-1.295-7.545-1.428-11.189-.385-4.77 1.366-7.505 4.254-7.928 8.36a6.08 6.08 0 0 0-.872 1.705l-.37 1.14c-.2.611.02 1.254.546 1.6.526.345 1.18.275 1.627-.174a2.67 2.67 0 0 1 .495-.391v7.872c-1.967.374-3.463 2.164-3.463 4.312 0 2.233 1.618 4.08 3.702 4.35a15.382 15.382 0 0 0 4 7.976c2.745 2.889 6.394 4.48 10.275 4.48h.002c3.876 0 7.52-1.567 10.261-4.411a15.147 15.147 0 0 0 4.037-8.049c2.072-.28 3.678-2.121 3.678-4.346zm-6.507-20.475c.966.664 1.52 1.735 1.52 2.937v10.346c-2.365-.381-4.181-2.508-4.181-5.068l-.063-8.692c.93-.255 1.9-.09 2.724.477zM20.495 27.72l.148-.455a4.374 4.374 0 0 1 2.363-2.653 4.131 4.131 0 0 1 3.482.056c2.307 1.115 5.096.513 6.782-1.465l.19-.222a.811.811 0 0 0-.067-1.116.743.743 0 0 0-1.075.068l-.189.222c-1.243 1.458-3.298 1.902-4.998 1.08a5.606 5.606 0 0 0-5.128.124c.886-2.45 3.03-4.175 6.402-5.14 3.348-.96 6.908-.836 10.293.357l4.536 1.597.06 4.085c-2.02 2.85-4.966 4.778-8.322 5.441-3.437.68-6.943-.04-9.873-2.023a4.005 4.005 0 0 0-4.604.044zm-.937 13.398c0-1.271.82-2.347 1.94-2.69v4.286c0 .37.012.738.037 1.104-1.139-.33-1.977-1.415-1.977-2.7zm25.639 11.277c-2.453 2.545-5.715 3.947-9.184 3.948h-.002c-3.47 0-6.733-1.424-9.19-4.01-2.45-2.579-3.8-5.995-3.8-9.62v-14.15c.432.033.86.178 1.245.44 3.262 2.208 7.165 3.008 10.991 2.252a14.755 14.755 0 0 0 8.04-4.54v2.145c0 3.433 2.497 6.27 5.704 6.662v7.343c0 3.6-1.35 6.986-3.804 9.532zm5.299-8.58c.019-.315.03-.633.03-.952V38.43c1.119.342 1.939 1.418 1.939 2.689 0 1.282-.834 2.365-1.97 2.697z"/></g></g></svg>