<svg width="53" height="50" viewBox="0 0 53 50" xmlns="http://www.w3.org/2000/svg" xmlns:xlink="http://www.w3.org/1999/xlink"><g data-name="Canvas"><g data-name="Ui_kit" clip-path="url(#a)" fill="none"><path fill="#fff" d="M-119.741-1119.87h1341.686v2428.186H-119.741z"/><g data-name="Group 13"><g data-name="icons"><g data-name="Group"><g data-name="tabs_kids"><g data-name="Group 5"><g data-name="Group 4"><g data-name="tabs"><g data-name="Group 20"><g data-name="Груднички от 1.5 мес Copy"><g data-name="grudnik"><g data-name="kolyaska"><use xlink:href="#b" fill="#BDBDBD" transform="scale(.98148)" data-name="Shape"/></g></g></g></g></g></g></g></g></g></g></g></g></g><defs><clipPath id="a"><path fill="#fff" transform="translate(-119.741 -1119.87) scale(.98148)" d="M0 0h1367v2474H0z"/></clipPath><path id="b" fill-rule="evenodd" clip-rule="evenodd" d="M36.47.002L36.46 0l-.07.15-.07.15a6.02 6.02 0 0 0-.02.178l-.003.014-.07.117-.128.21-.008.1-.008.1-.2.326c-.002.05-.01.15-.014.201l-.2.327-.015.201a25.94 25.94 0 0 0-.2.326l-.008.1-.007.1-.2.326a7.19 7.19 0 0 1-.015.203l-.065.105-.135.22-.007.104-.008.097-.2.325-.006.078-.01.12-.146.255-.041.072-.05.182-.003.01-.012.042a18.98 18.98 0 0 0-.08.289 23.64 23.64 0 0 0-.186.326l-.017.199c-.068.109-.135.216-.2.325l-.008.097-.007.104c-.067.109-.134.217-.2.327l-.012.164-.002.036-.202.328-.013.198-.202.329-.013.199-.175.284-.025.042c-.005.05-.012.152-.016.202-.067.109-.134.217-.2.327l-.015.201-.2.325-.007.1-.007.101-.2.324-.008.1-.01.1c-.062.109-.124.217-.185.327l-.056.199-.006.02-.003.01-.002.01-.078.28-.187.328-.017.199-.055.09-.01.015-.134.22-.01.123-.006.079-.2.325-.015.203-.144.234-.057.092-.007.107-.007.094-.2.325-.013.2-.201.326-.015.202-.2.326-.015.202a54.78 54.78 0 0 0-.2.325l-.017.2c-.063.108-.126.217-.187.327a32.43 32.43 0 0 1-.145.52l-.187.328-.016.196-.047.077-.154.251-.013.2a14.82 14.82 0 0 0-.2.325c-.004.05-.011.152-.016.202l-.166.27-.034.055c-.003.05-.01.152-.015.202l-.2.325-.014.201-.2.326-.008.1-.007.101-.2.328-.01.09-.01.102-.086.176-.049.1H13.117l-.04-.242c-.03-.122-.058-.244-.085-.366-.023-.1-.045-.201-.07-.301l-.027-.075-.04-.107a17.785 17.785 0 0 1-.093-.37l-.013-.056a17.698 17.698 0 0 1-.097-.317l-.002-.005a36.811 36.811 0 0 1-.216-.43l-.001-.003c-.413-.829-.834-1.672-1.554-2.288-.571-.636-1.302-1.09-2.025-1.54l-.055-.034.003-.08c.015-.409.03-.82-.052-1.223a13.017 13.017 0 0 1-.186-.517 4.42 4.42 0 0 0-2.392-2.456c-.22-.065-.438-.136-.655-.21a26.215 26.215 0 0 1-.283-.067 4.756 4.756 0 0 0-1.649-.01l-.033.01c-.13.038-.259.076-.389.116l-.165.05-.018.005-.012.004-.005.001a12.22 12.22 0 0 1-.326.098c-.686.305-1.332.74-1.766 1.355-.226.284-.386.608-.546.931l-.085.173-.056.199-.008.027-.029.1-.122.27-.025.053v1.82l.068.186c.06.165.122.331.178.499.29.683.713 1.328 1.319 1.78.205.176.44.308.676.44l.01.005.004.002c.133.075.266.15.393.232l.181.05c.142.04.285.079.429.117l.215.037h.006l.005.002h.002c.191.032.383.065.57.116.232.01.463.01.695 0 .19-.05.382-.084.575-.116h.002l.218-.038c.145-.038.289-.076.433-.117l.181-.05c.741-.396 1.456-.87 1.932-1.57.997.677 1.843 1.587 2.3 2.702.067.215.139.43.214.643l.064.177c.033.14.061.281.089.422l.021.107c.111.372.135.754.158 1.135.018.308.037.615.102.916l.008.28v.004c.015.56.03 1.12.16 1.669.041.197.073.397.105.596l.002.014c.053.331.105.663.202.985.038.12.072.24.107.36l.053.184v.003c.033.14.065.278.1.416l.106.317c.055.22.132.436.228.642.01.047.029.14.037.186l.197.329.007.099.008.099.187.307.012.019.022.198a20.613 20.613 0 0 0 3.61 5.255c1.202 1.248 2.609 2.282 4.065 3.225l-.29.012c-.15.006-.298.011-.447.019-.146.044-.293.085-.44.125l-.329.089c-.113.059-.225.12-.337.18l-.199.016c-.227.152-.467.283-.707.415l-.014.008c-.109.059-.217.118-.324.18-.75.48-1.354 1.145-1.867 1.859-.15.242-.276.496-.402.75-.088.179-.177.358-.274.533l-.049.186-.037.138c-.115.426-.23.856-.253 1.3l-.003.174c-.014.707-.027 1.422.178 2.106.041.157.084.315.127.472l.04.145c.098.177.188.36.279.542v.002c.236.475.471.952.85 1.335.677.885 1.652 1.492 2.666 1.946.128.038.257.078.387.12l.021.006.121.039.42.111c.786.158 1.606.262 2.403.107.09-.016.181-.03.272-.044.122-.019.244-.038.365-.06l.175-.048.033-.008.022-.007c.063-.017.127-.034.19-.053.175-.055.35-.111.526-.163l.247-.119.042-.02c.524-.25 1.052-.502 1.47-.91.452-.309.794-.727 1.134-1.143l.123-.149c.099-.16.189-.327.278-.493.125-.23.25-.46.398-.676.028-.109.057-.216.087-.324.04-.106.08-.213.121-.317l.03-.09.029-.091.074-.325.045-.197c.106-1.054.15-2.152-.173-3.178l-.062-.15-.017-.045-.006-.016-.005-.011-.006-.016-.083-.203a9.723 9.723 0 0 0-.037-.181 6.82 6.82 0 0 1-.383-.644c-.152-.28-.305-.56-.507-.81.171.056.344.111.52.16.084.018.17.035.255.051.141.028.282.055.422.087.079.017.157.036.236.055l.008.002.009.002.008.002.017.004.008.002c.12.024.242.045.363.066h.004l.006.001c.141.025.283.049.424.079.348.038.695.083 1.043.128.268.036.537.07.807.102.219.023.441.017.663.01.349-.01.697-.02 1.034.082.381.042.769.04 1.146-.036.287-.056.579-.05.87-.044.333.006.666.013.99-.073a19.608 19.608 0 0 0 1.605-.207l.177-.026h.004c.153-.023.306-.045.458-.071l.013-.004c.14-.041.28-.082.419-.125.117-.014.235-.028.352-.04l.04-.005c.144-.043.288-.084.433-.123.144-.033.289-.064.435-.093l.404-.136.368-.124.16-.05.007-.002.007-.003c.114-.036.229-.072.344-.106-.545.584-.93 1.283-1.309 1.975-.065.219-.137.435-.213.65l-.058.281c-.022.097-.04.195-.059.293l-.003.02-.003.012c-.029.154-.058.308-.097.46l-.012.28c-.021.503-.043 1.01.054 1.506l.04.19c.024.11.047.221.072.33.037.139.073.276.113.414l.033.1c.045.14.09.278.133.418.5.999 1.132 1.98 2.06 2.646.374.299.797.526 1.22.753.134.073.268.145.4.22.134.037.267.077.4.118l.132.04.278.077.022.006.01.003.008.002.009.003.094.026c.112.02.225.037.337.055l.01.001.004.001.014.002.032.005.01.002.012.002.02.003c.065.01.131.02.197.032.834.147 1.693.07 2.513-.114.095-.02.192-.04.288-.056.111-.038.222-.074.334-.109.197-.105.4-.199.603-.293.45-.208.901-.417 1.275-.745.953-.717 1.654-1.71 2.126-2.787.067-.215.14-.43.217-.643.02-.094.04-.186.063-.28.018-.097.032-.196.047-.295l.004-.022a6.26 6.26 0 0 1 .103-.575 6.244 6.244 0 0 0 0-1.106 6.166 6.166 0 0 1-.103-.57 10.489 10.489 0 0 0-.05-.317 11.484 11.484 0 0 1-.065-.285 19.926 19.926 0 0 1-.217-.645c-.494-1.062-1.161-2.085-2.14-2.774-.403-.352-.887-.58-1.368-.807l-.002-.001a30.861 30.861 0 0 1-.278-.133c-.22-.068-.438-.139-.655-.213-.098-.02-.195-.04-.292-.057-.102-.022-.204-.04-.306-.06h-.005l-.006-.001-.005-.001-.008-.002h-.002c-.155-.029-.31-.057-.463-.096-.349-.022-.7-.022-1.047-.02.202-.135.406-.267.61-.398l.013-.008c.3-.194.6-.387.891-.592.216-.182.438-.358.66-.534.507-.402 1.014-.804 1.448-1.285.49-.427.901-.925 1.311-1.424.18-.219.361-.438.548-.65.155-.205.297-.419.439-.633.1-.149.199-.298.302-.445.377-.515.658-1.085.94-1.654v-.002l.002-.003c.16-.327.322-.653.501-.97l.027-.198c.06-.109.121-.216.184-.325.027-.103.057-.205.086-.308l.06-.211c.058-.11.114-.219.173-.327.03-.108.062-.214.095-.32.035-.144.07-.287.109-.429l.064-.18c.078-.28.151-.56.222-.84.026-.117.05-.234.074-.35l.036-.178c.033-.174.062-.35.09-.524l.001-.008c.048-.296.097-.592.169-.883.01-.164.014-.329.02-.494v-.016c.006-.197.012-.394.026-.59.106-.343.095-.697.083-1.052-.006-.206-.013-.411.003-.614.003-.104.02-.207.037-.31.035-.208.069-.414-.01-.618l-.01-.139-.003-.049v-.003a4.672 4.672 0 0 0-.09-.757l-.013-.14a5.36 5.36 0 0 0-.094-.698c-.033-.597-.165-1.18-.297-1.761l-.028-.126a28.456 28.456 0 0 1-.064-.281c-.028-.115-.053-.23-.078-.346l-.005-.022-.004-.022-.06-.271-.15-.435c-.156-.446-.31-.892-.447-1.343l-.037-.066-.012-.022-.13-.238-.024-.198a30.141 30.141 0 0 1-.16-.289l-.012-.023-.126-.228-.026-.194c-.905-1.782-1.989-3.495-3.374-4.956-1.42-1.649-3.195-2.97-5.063-4.096-.587-.349-1.2-.65-1.813-.95l-.004-.001a48.229 48.229 0 0 1-.966-.482l-.2-.022-.095-.055-.238-.14-.2-.017-.145-.077-.19-.102a13.13 13.13 0 0 1-.979-.315L38.63.635c-.108-.041-.217-.08-.325-.12a21.21 21.21 0 0 0-.252-.065l-.018-.005c-.098-.025-.195-.05-.293-.077l-.186-.052-.208-.072-.119-.042-.32-.117a17.115 17.115 0 0 0-.37-.07L36.52.01l-.017-.003-.017-.003-.017-.003zm1.142 3.241c.087-.164.169-.332.247-.501l.058.029.162.081.206.041.333.111.315.152c.112.036.224.074.335.112l.205.034h.006c.104.064.21.127.315.19l.013.002.02.001c.058.006.14.014.185.017l.219.126.128.062.024.012.495.24.213.107.046.021.171.08c.235.112.458.245.68.378l.161.096c1.167.634 2.24 1.426 3.26 2.267.222.22.446.438.67.656l.026.026c.36.351.719.703 1.073 1.058.115.144.231.287.348.43l.022.027c.425.52.852 1.042 1.19 1.62.067.108.138.214.209.32l.006.008c.156.234.312.467.43.723.148.337.344.65.557.95l.02.216.122.218c.058.103.116.207.176.31l.02.215.182.285.014.022.002.018.029.194.071.183.01.025.017.044.067.172c.031.108.065.214.099.32.038.107.079.214.12.319l.015.05v.003l.008.026.032.117c.041.14.08.28.117.422.014.065.028.13.04.195.032.154.063.307.106.458l.058.293c.066.153.078.317.09.48l.013.15c.081.167.087.35.092.531.002.07.004.138.01.207.121.291.106.607.09.922v.006a3.904 3.904 0 0 0-.002.51 6616.9 6616.9 0 0 0-7.717 0c-4.279 0-8.558.001-12.837-.006.075-.16.153-.318.236-.474l.014-.106.013-.104.197-.309c.004-.055.013-.163.016-.218l.2-.308.006-.098.002-.027.007-.093.2-.31.014-.218.156-.241.044-.068a5.27 5.27 0 0 1 .007-.098v-.008l.008-.112.199-.308.02-.216.176-.308c.035-.112.071-.222.11-.332l.037-.208c.064-.103.128-.205.194-.307l.017-.219.199-.307.015-.22.2-.307.006-.095.002-.027.007-.098.2-.308.007-.11.008-.109.2-.309.007-.108a7.18 7.18 0 0 0 .007-.109l.2-.309.008-.11.007-.109.2-.308.015-.219.1-.154.099-.154.02-.215.176-.31c.035-.11.071-.221.11-.33l.036-.208.054-.086.14-.222.018-.218.199-.31.006-.092.003-.043.006-.082.08-.124c.04-.062.079-.123.12-.184l.007-.112V8.92l.008-.098.043-.068.156-.241.016-.22.077-.12.008-.012.114-.175.01-.127.002-.036v-.012l.004-.044c.066-.103.132-.206.2-.308l.014-.218.2-.31.008-.118.007-.1.071-.11.008-.013.12-.185.007-.095.002-.027.007-.098.198-.307.02-.215.177-.31c.034-.111.072-.222.11-.331l.017-.093.02-.115.053-.086.14-.222.01-.134.007-.084.198-.308.018-.218.14-.222.055-.087c.008-.052.021-.157.028-.21zM3.82 11.205c-.616.262-1.194.67-1.44 1.308l-.025.11-.02.09c-.133.306-.1.653-.02.967l.034.077.104.238.031.203c.257.441.66.754 1.11.992l.207.04a1.96 1.96 0 0 0 1.208 0l.088-.017.119-.023.16-.098.004-.001c.173-.105.346-.21.5-.339.192-.218.332-.473.471-.725l.016-.029.063-.112.02-.092.025-.109a1.054 1.054 0 0 0-.005-.867 25.49 25.49 0 0 1-.038-.304c-.25-.637-.825-1.045-1.44-1.309a16.712 16.712 0 0 0-1.172 0zm9.516 11.519a10.246 10.246 0 0 1-.017-.776h38.24c.003.293.004.587-.016.881-.092.16-.096.34-.1.518a2.619 2.619 0 0 1-.011.22 1.142 1.142 0 0 0-.09.399v.003c-.014.123-.027.247-.076.364a9.569 9.569 0 0 0-.053.295c-.03.088-.056.177-.082.267l-.004.016-.005.016c-.023.081-.047.163-.072.244l-.031.11-.024.086c-.03.095-.057.19-.085.286v.004l-.003.008c-.023.081-.046.163-.071.243l-.056.197a6.64 6.64 0 0 0-.105.33c-.06.103-.12.206-.178.31l-.02.214a31.72 31.72 0 0 0-.198.308l-.019.215c-.06.102-.12.204-.177.307-.055.113-.111.224-.168.336l-.018.038-.026.05-.028.055-.01.02c-.08.155-.159.31-.234.468-.228.443-.514.853-.8 1.263l-.008.012c-.155.222-.309.443-.454.67-.206.232-.404.472-.6.712-.392.477-.783.955-1.25 1.367-1.142.98-2.337 1.92-3.672 2.637l-.206.09-.017.007h-.002l-.118.053c-.273.173-.55.342-.842.479l-.221.12a5.396 5.396 0 0 1-.219.02l-.315.195-.219.019-.313.177-.222.098c-.11.035-.221.072-.33.11l-.202.051c-.109.038-.219.076-.328.112l-.103.036c-.11.04-.221.079-.33.12a17.5 17.5 0 0 1-.204.049l-.245.07-.005.002a9.952 9.952 0 0 0-.303.089 12.82 12.82 0 0 0-.302.05c-.144.043-.287.083-.43.122-.135.032-.271.053-.407.075h-.003l-.126.02c-.147.048-.3.07-.454.092l-.083.013c-.153.07-.318.071-.483.072-.177.002-.353.003-.513.088a2.725 2.725 0 0 1-.22.01c-.184.004-.368.008-.531.099-.69.022-1.38.019-2.07.016h-.01a78.232 78.232 0 0 0-1.51.003 2.67 2.67 0 0 0-.155 0c-.189.002-.382.005-.55-.09-.1-.008-.2-.013-.299-.019h-.014l-.015-.002h-.026c-.088-.006-.175-.01-.262-.017-.16-.086-.336-.087-.513-.088-.165-.001-.33-.002-.482-.072l-.112-.017a2.008 2.008 0 0 1-.424-.092l-.299-.057a5.917 5.917 0 0 0-.466-.103 12.854 12.854 0 0 1-.2-.04 26.174 26.174 0 0 1-.43-.114l-.197-.058c-.086-.025-.171-.05-.258-.073l-.005-.001a11.479 11.479 0 0 1-.29-.083l-.126-.03-.077-.02c-.085-.031-.17-.062-.257-.092l-.015-.005-.011-.004-.15-.053c-.11-.038-.22-.076-.329-.116a12.893 12.893 0 0 1-.208-.037l-.208-.111-.016-.01-.018-.008-.295-.16a15.727 15.727 0 0 1-.215-.026l-.221-.119a37.957 37.957 0 0 1-.316-.173l-.1-.009-.12-.01a6.527 6.527 0 0 0-.846-.493c-.389-.158-.735-.39-1.08-.621-.125-.084-.25-.167-.376-.247-.944-.598-1.842-1.273-2.607-2.083-1.063-.984-2-2.1-2.74-3.34a7.197 7.197 0 0 1-.487-.857l-.107-.21a28.034 28.034 0 0 1-.21-.425 29.304 29.304 0 0 0-.177-.306l-.024-.212-.176-.309a15.932 15.932 0 0 0-.11-.331l-.038-.206a23.576 23.576 0 0 1-.13-.223l-.048-.082a3.449 3.449 0 0 0-.096-.44l-.064-.192a9.089 9.089 0 0 1-.088-.314l-.005-.02c-.019-.07-.037-.14-.057-.209l-.003-.013a7.973 7.973 0 0 0-.11-.413l-.002-.007-.003-.014-.054-.27c-.049-.119-.062-.244-.076-.369a1.187 1.187 0 0 0-.089-.398 2.24 2.24 0 0 1-.01-.202l-.001-.008v-.009c-.005-.179-.01-.359-.1-.518zm6.58 16.585l-.197.06-.334.105c-.088.043-.175.088-.263.132l-.048.025-.217.097c-.688.349-1.248.908-1.647 1.555-.06.103-.123.205-.186.306l-.007.011-.128.21a14.633 14.633 0 0 1-.166.524c-.05.148-.072.301-.095.455l-.01.07a1.973 1.973 0 0 0-.001 1.185l.01.065.001.006c.024.153.048.306.095.454l.064.193c.036.108.072.217.105.328.433.859 1.064 1.665 1.965 2.085.177.08.353.165.527.252l.22.122c.102.011.205.024.308.038.155.08.325.08.495.08.165 0 .33 0 .48.073.163-.068.335-.07.509-.074.16-.004.321-.007.474-.061l.43-.118.199-.047c.165-.139.354-.244.556-.323a4.374 4.374 0 0 0 1.63-1.595c.065-.147.133-.29.203-.432l.125-.213.047-.202a2.16 2.16 0 0 0 .093-.429l.015-.096a2.595 2.595 0 0 0-.003-1.396l-.022-.108a11.646 11.646 0 0 1-.036-.184 2.773 2.773 0 0 1-.105-.434l-.108-.218c-.23-.488-.567-.919-.912-1.333a7.856 7.856 0 0 1-.306-.242c-.261-.213-.523-.427-.843-.548a18.278 18.278 0 0 1-.437-.224 18.66 18.66 0 0 0-.209-.036l-.32-.134c-.639-.086-1.32-.118-1.951.016zm23.845.109c.143-.041.286-.08.43-.118.236-.078.483-.073.73-.068.1.002.201.004.301 0 .07.003.143.001.215 0 .207-.005.416-.01.605.087l.144.015.17.017.137.084.175.107.212.022c.136.103.28.197.43.28.729.383 1.3 1.022 1.647 1.753l.09.196.066.14.178.304c.01.102.023.203.036.305.095.186.091.392.087.596 0 .07-.002.14 0 .21a5.302 5.302 0 0 0 0 .29c.005.243.01.487-.067.72l-.041.143c-.027.093-.054.186-.083.28l-.038.203-.114.176c-.076.117-.152.234-.225.353a4.236 4.236 0 0 1-1.951 1.814l-.166.074-.056.026c-.11.034-.22.07-.33.108l-.197.06c-.176.076-.365.075-.553.073-.185-.001-.37-.002-.544.07-.152-.07-.317-.07-.482-.072-.165-.001-.33-.003-.483-.072l-.197-.059a14.858 14.858 0 0 0-.333-.106 30.001 30.001 0 0 0-.527-.256c-.259-.093-.458-.27-.657-.447a3.884 3.884 0 0 0-.319-.265c-.337-.344-.656-.72-.83-1.173a39.588 39.588 0 0 0-.28-.52l-.01-.077-.03-.224c-.082-.17-.087-.355-.092-.539a3.498 3.498 0 0 0-.01-.198.478.478 0 0 1 0-.556l.006-.135c.01-.2.019-.4.072-.594.045-.106.09-.212.137-.316l.033-.207c.057-.102.114-.204.17-.308.153-.358.403-.657.652-.955.06-.072.121-.144.18-.217l.083-.067c.374-.303.75-.609 1.204-.796l.085-.045.136-.071.1-.022.104-.023z"/></defs></svg>