<svg width="42" height="49" viewBox="0 0 42 49" xmlns="http://www.w3.org/2000/svg" xmlns:xlink="http://www.w3.org/1999/xlink"><g data-name="Canvas"><g data-name="Ui_kit" clip-path="url(#a)" fill="none"><path fill="#fff" d="M-498.312-1261.74H839.775v2421.672H-498.312z"/><g data-name="Group 13"><g data-name="icons"><g data-name="Group"><g data-name="tabs_kids"><g data-name="Group 5"><g data-name="Group 4"><g data-name="tabs"><g data-name="Group 21"><g data-name="Детки от 5 до 7 лет"><g data-name="ot_5_do_7" fill="#767676"><use xlink:href="#b" transform="translate(16.26 36.669) scale(.97885)" data-name="Shape"/><use xlink:href="#c" transform="scale(.97885)" data-name="Shape"/><use xlink:href="#d" transform="translate(9.765 25.888) scale(.97885)" data-name="Shape"/><use xlink:href="#e" transform="translate(26.97 25.888) scale(.97885)" data-name="Shape"/></g></g></g></g></g></g></g></g></g></g></g></g><defs><clipPath id="a"><path fill="#fff" transform="translate(-498.312 -1261.74) scale(.97885)" d="M0 0h1367v2474H0z"/></clipPath><path id="b" d="M8.087.278a4.556 4.556 0 0 1-6.487 0 .93.93 0 0 0-1.325 0 .955.955 0 0 0 0 1.34 6.405 6.405 0 0 0 4.569 1.91 6.401 6.401 0 0 0 4.568-1.91.955.955 0 0 0 0-1.34.93.93 0 0 0-1.325 0z"/><path id="c" fill-rule="evenodd" clip-rule="evenodd" d="M42.666 47.142c-2.196-2.458-2.289-8.723-2.029-15.206a4.988 4.988 0 0 0 1.556-3.626 4.987 4.987 0 0 0-1.223-3.277c.32-6.612.489-11.033-1.585-15.116C37.97 7.131 35.681 4.804 32.581 3A22.076 22.076 0 0 0 20.66.015c-3.676.132-7.099 1.864-9.459 4.77-3.047.183-5.819 1.86-7.31 4.452-.128.222-.252.451-.368.68-2.075 4.085-1.906 8.506-1.587 15.117a4.985 4.985 0 0 0-1.22 3.276c0 1.428.598 2.717 1.555 3.625.26 6.483.166 12.749-2.03 15.208a.955.955 0 0 0 .365 1.522 19.585 19.585 0 0 0 7.025 1.282 22.09 22.09 0 0 0 5.8-.793c2.718-.743 4.635-1.786 5.289-2.171a16.624 16.624 0 0 0 5.468 0c.654.385 2.57 1.428 5.288 2.171 2.086.57 4.02.794 5.77.794 2.915 0 5.317-.62 7.055-1.284a.943.943 0 0 0 .58-.663.955.955 0 0 0-.215-.858zm-4.457-16.875V25.38a3.083 3.083 0 0 1 2.109 2.93c0 1.38-.9 2.55-2.138 2.941.019-.326.029-.654.029-.984zM5.512 10.19c-.112.194-.22.394-.32.593-1.662 3.27-1.711 6.824-1.44 12.93a5.01 5.01 0 0 1 .947-.288v-.173c0-.484.36-.89.836-.943 3.747-.413 6.127-2.166 7.49-5.516a.93.93 0 0 1 1.544-.295c1.864 1.967 8.854 8.256 21.765 8.116v-2.152c0-.524.42-.948.938-.948.517 0 .937.424.937.948v.964c.328.064.644.16.945.287.272-6.107.223-9.662-1.437-12.93-1.247-2.455-3.29-4.522-6.072-6.141a20.22 20.22 0 0 0-10.917-2.733c-3.262.118-6.293 1.716-8.316 4.384a.934.934 0 0 1-.725.37l-.013.001c-2.566.03-4.927 1.38-6.162 3.526zm-.784 21.061a3.082 3.082 0 0 1-2.138-2.94c0-1.369.887-2.53 2.11-2.931v4.887c0 .33.01.658.028.984zm-.54 1.815c.212 6.545-.078 11.34-1.75 14.226 5.652 1.716 10.785.153 13.498-1.028-5.64-1.995-9.912-6.956-10.978-13.026a4.808 4.808 0 0 1-.77-.172zm17.266 12.248c-8.205 0-14.88-6.75-14.88-15.047v-6.188c3.515-.585 6.018-2.335 7.605-5.321 1.35 1.246 3.534 2.954 6.611 4.452 4.627 2.251 9.852 3.362 15.544 3.3v3.757c0 8.297-6.675 15.047-14.88 15.047zm5.515.952c.82.358 1.856.75 3.058 1.075 3.626.98 7.132.963 10.443-.048-1.673-2.885-1.962-7.681-1.75-14.227a4.81 4.81 0 0 1-.769.172c-1.066 6.071-5.34 11.034-10.982 13.028z"/><path id="d" d="M.275 1.01a.955.955 0 0 0 0 1.34.93.93 0 0 0 1.325 0 1.53 1.53 0 0 1 2.18 0 .929.929 0 0 0 1.325 0 .955.955 0 0 0 0-1.34 3.392 3.392 0 0 0-4.83 0z"/><path id="e" d="M5.105 2.35a.955.955 0 0 0 0-1.34 3.392 3.392 0 0 0-4.83 0 .955.955 0 0 0 0 1.34.93.93 0 0 0 1.325 0 1.53 1.53 0 0 1 2.18 0 .929.929 0 0 0 1.325 0z"/></defs></svg>