<svg width="59" height="50" viewBox="0 0 59 50" xmlns="http://www.w3.org/2000/svg" xmlns:xlink="http://www.w3.org/1999/xlink"><g data-name="Canvas"><g data-name="Ui_kit" clip-path="url(#a)" fill="none"><path fill="#fff" d="M-316.95-1262.92h1341.397v2427.664H-316.95z"/><g data-name="Group 13"><g data-name="icons"><g data-name="Group"><g data-name="tabs_kids"><g data-name="Group 5"><g data-name="Group 4"><g data-name="tabs"><g data-name="Group 21"><g data-name="Малыши от 2 до 4 лет"><g data-name="003-people-3" fill="#767676"><use xlink:href="#b" transform="scale(.98127)" data-name="Shape"/><use xlink:href="#c" transform="translate(15.27 23.656) scale(.98127)" data-name="Shape"/><use xlink:href="#d" transform="translate(34.08 23.656) scale(.98127)" data-name="Shape"/><use xlink:href="#e" transform="translate(22.605 35.469) scale(.98127)" data-name="Shape"/><use xlink:href="#f" transform="translate(26.873 29.996) scale(.98127)" data-name="Shape"/></g></g></g></g></g></g></g></g></g></g></g></g><defs><clipPath id="a"><path fill="#fff" transform="translate(-316.95 -1262.92) scale(.98127)" d="M0 0h1367v2474H0z"/></clipPath><path id="b" fill-rule="evenodd" clip-rule="evenodd" d="M30 0c11.456 0 21.174 7.574 24.392 17.97C57.679 18.944 60 22 60 25.476c0 3.478-2.32 6.532-5.608 7.508-3.218 10.395-12.936 17.97-24.393 17.97S8.826 43.38 5.608 32.984C2.32 32.008 0 28.953 0 25.477 0 22 2.32 18.946 5.607 17.97 8.825 7.574 18.542 0 30 0zM2.239 25.477a5.619 5.619 0 0 0 2.689 4.779 25.461 25.461 0 0 1 0-9.558 5.617 5.617 0 0 0-2.69 4.779zm27.76 23.243c-12.839 0-23.285-10.427-23.285-23.243 0-8.863 4.997-16.582 12.325-20.501 1.114 2.364 4.615 8.28 12.917 11.595a1.117 1.117 0 1 0 .83-2.075c-7.542-3.011-10.753-8.468-11.718-10.482a23.17 23.17 0 0 1 8.213-1.767c.776 1.57 3.003 5.258 7.606 7.346a1.12 1.12 0 0 0 1.482-.555 1.116 1.116 0 0 0-.556-1.48c-3.1-1.406-4.962-3.707-5.926-5.246 11.96.962 21.397 10.984 21.397 23.165C53.284 38.293 42.84 48.72 30 48.72zm25.524-23.243c0 1.634-.157 3.231-.452 4.78a5.615 5.615 0 0 0 2.69-4.78 5.617 5.617 0 0 0-2.69-4.78 25.45 25.45 0 0 1 .452 4.78z"/><path id="c" d="M4.854 0A4.855 4.855 0 0 0 0 4.845a1.118 1.118 0 0 0 2.239 0 2.615 2.615 0 0 1 5.23 0 1.118 1.118 0 0 0 2.238 0A4.855 4.855 0 0 0 4.854 0z"/><path id="d" d="M4.854 0A4.855 4.855 0 0 0 0 4.845a1.118 1.118 0 0 0 2.239 0 2.615 2.615 0 0 1 5.23 0 1.118 1.118 0 0 0 2.239 0A4.855 4.855 0 0 0 4.854 0z"/><path id="e" d="M13.814.327a1.121 1.121 0 0 0-1.583 0c-2.845 2.84-7.475 2.84-10.32 0a1.121 1.121 0 0 0-1.583 0 1.116 1.116 0 0 0 0 1.58 9.484 9.484 0 0 0 6.743 2.79 9.48 9.48 0 0 0 6.743-2.79 1.116 1.116 0 0 0 0-1.58z"/><path id="f" d="M4.107 0H1.119a1.118 1.118 0 1 0 0 2.235h2.988a1.118 1.118 0 1 0 0-2.235z"/></defs></svg>