<svg width="68" height="87" viewBox="0 0 68 87" xmlns="http://www.w3.org/2000/svg" xmlns:xlink="http://www.w3.org/1999/xlink"><title>Ellipse</title><desc>Created using Figma</desc><g transform="translate(-4359 -9918)"><mask id="b"><use xlink:href="#a" fill="#fff" transform="translate(4359 9918)"/></mask><g mask="url(#b)"><use xlink:href="#c" transform="translate(4359 9918)" fill="#FF680D"/></g></g><defs><path id="a" d="M67.957 33.988c0 18.771-31.73 52.982-31.98 52.982S0 52.76 0 33.988C0 15.217 15.213 0 33.978 0c18.766 0 33.979 15.217 33.979 33.988z"/><path id="c" d="M66.957 33.988c0 4.451-1.895 9.936-4.853 15.744-2.945 5.781-6.886 11.77-10.85 17.196-3.963 5.423-7.936 10.265-10.933 13.751a176.205 176.205 0 0 1-3.635 4.108c-.443.483-.79.853-1.028 1.1-.12.124-.208.212-.263.266l-.039.037a.366.366 0 0 1 .012-.01l.036-.028a.937.937 0 0 1 .103-.064c.004-.002.198-.118.47-.118v2c.274 0 .47-.117.479-.121a1.076 1.076 0 0 0 .21-.149c.04-.034.083-.074.12-.11.08-.078.185-.184.311-.315.254-.263.614-.646 1.063-1.136.9-.98 2.166-2.398 3.678-4.156 3.022-3.515 7.029-8.399 11.03-13.875 3.999-5.472 8.006-11.556 11.018-17.468 2.999-5.887 5.07-11.717 5.07-16.652h-2zM35.977 85.97c.103.005.265.036.323.054.038.013.1.04.125.052.047.024.081.047.093.055l.032.022a.193.193 0 0 1 .009.007l-.013-.011a71.4 71.4 0 0 1-1.49-1.403 189.851 189.851 0 0 1-4.087-4.11c-3.371-3.487-7.842-8.33-12.302-13.753-4.463-5.427-8.899-11.415-12.213-17.195C3.12 43.878 1 38.41 1 33.988h-2c0 4.964 2.345 10.812 5.719 16.695 3.392 5.914 7.904 11.999 12.403 17.47 4.503 5.476 9.012 10.36 12.41 13.873a187.505 187.505 0 0 0 4.13 4.154c.505.49.907.872 1.19 1.135.14.13.257.235.343.31.041.036.085.073.126.105a1.428 1.428 0 0 0 .2.13s.193.11.456.11v-2zM1 33.988C1 15.77 15.765 1 33.978 1v-2C14.66-1-1 14.665-1 33.988h2zM33.978 1c18.213 0 32.979 14.77 32.979 32.988h2C68.957 14.665 53.297-1 33.978-1v2z"/></defs></svg>