<svg width="26" height="35" viewBox="0 0 26 35" xmlns="http://www.w3.org/2000/svg" xmlns:xlink="http://www.w3.org/1999/xlink"><g data-name="Canvas"><g data-name="Ui_kit" clip-path="url(#a)" fill="none"><path fill="#fff" d="M-442.983-899.871H914.769v2457.263H-442.983z"/><g data-name="Group 13"><g data-name="Group 11"><g data-name="Group 2"><g data-name="placeholder" fill="#FF680D"><use xlink:href="#b" transform="scale(.99323)" data-name="Vector"/><use xlink:href="#c" transform="translate(6.456 6.152) scale(.99323)" data-name="Vector"/></g></g></g></g></g></g><defs><clipPath id="a"><path fill="#fff" transform="translate(-442.983 -899.871) scale(.99323)" d="M0 0h1367v2474H0z"/></clipPath><path id="b" d="M13 0C5.832 0 0 5.557 0 12.389c0 2.308.67 4.56 1.94 6.514L12.26 34.75c.198.304.546.488.92.488h.01c.377-.002.726-.193.92-.502l10.056-16A11.935 11.935 0 0 0 26 12.387C26 5.559 20.168 0 13 0zm9.307 17.675l-9.143 14.548-9.382-14.408a9.955 9.955 0 0 1-1.63-5.427C2.152 6.697 7.027 2.052 13 2.052c5.974 0 10.84 4.645 10.84 10.338a9.951 9.951 0 0 1-1.533 5.287z"/><path id="c" d="M6.5 0C2.916 0 0 2.779 0 6.194c0 3.394 2.868 6.195 6.5 6.195 3.676 0 6.5-2.838 6.5-6.195C13 2.78 10.084 0 6.5 0zm0 10.338c-2.402 0-4.348-1.861-4.348-4.144 0-2.277 1.959-4.143 4.348-4.143 2.39 0 4.34 1.866 4.34 4.143 0 2.25-1.9 4.144-4.34 4.144z"/></defs></svg>