<svg width="11" height="15" viewBox="0 0 11 15" xmlns="http://www.w3.org/2000/svg" xmlns:xlink="http://www.w3.org/1999/xlink"><g data-name="Canvas"><g data-name="icon_placeholder"><g data-name="placeholder" fill="#FF680D"><use xlink:href="#a" transform="scale(.94017)" data-name="Shape"/><use xlink:href="#b" transform="translate(2.387 2.368) scale(.94017)" data-name="Shape"/></g></g></g><defs><path id="a" fill-rule="evenodd" clip-rule="evenodd" d="M0 5.609C0 2.516 2.467 0 5.5 0S11 2.516 11 5.609a5.684 5.684 0 0 1-.776 2.874L5.97 15.727a.457.457 0 0 1-.39.228h-.004a.456.456 0 0 1-.389-.221L.821 8.559A5.68 5.68 0 0 1 0 5.609zm5.57 8.98l3.867-6.586a4.74 4.74 0 0 0 .65-2.394c0-2.577-2.06-4.68-4.587-4.68C2.973.929.91 3.032.91 5.609c0 .871.243 1.72.69 2.457l3.97 6.523z"/><path id="b" fill-rule="evenodd" clip-rule="evenodd" d="M0 2.939C0 1.319 1.329 0 2.961 0c1.634 0 2.962 1.318 2.962 2.939A2.944 2.944 0 0 1 2.96 5.878 2.947 2.947 0 0 1 0 2.939zm.98 0c0 1.083.887 1.966 1.981 1.966A1.97 1.97 0 0 0 4.94 2.939a1.98 1.98 0 0 0-3.958 0z"/></defs></svg>