<svg width="11" height="11" viewBox="0 0 11 11" xmlns="http://www.w3.org/2000/svg" xmlns:xlink="http://www.w3.org/1999/xlink"><title>metro_grey</title><desc>Created using Figma</desc><use xlink:href="#a" fill="#767676"/><use xlink:href="#b" transform="translate(2.76 2.6)" fill="#767676"/><defs><path id="a" d="M5.513 0C2.475 0 0 2.475 0 5.527 0 8.552 2.475 11 5.513 11A5.464 5.464 0 0 0 11 5.527C11 2.475 8.442 0 5.513 0zm0 10.27C2.901 10.27.756 8.14.756 5.527.756 2.902 2.901.73 5.513.73c2.6 0 4.73 2.186 4.73 4.798 0 2.586-2.13 4.743-4.73 4.743z"/><path id="b" d="M4.867 0c-.343 0-.48.151-.632.454L2.75 3.548h-.014L1.238.454C1.086.15.948 0 .605 0 .151 0 0 .289 0 .564v4.798c0 .262.207.412.454.412.22 0 .467-.15.467-.412V1.787h.014l1.361 2.778c.097.192.22.303.44.303s.344-.11.44-.303l1.361-2.778h.014v3.575c0 .262.248.412.468.412.247 0 .453-.15.453-.412V.564c0-.275-.15-.564-.605-.564z"/></defs></svg>