<svg width="51" height="63" viewBox="0 0 51 63" xmlns="http://www.w3.org/2000/svg" xmlns:xlink="http://www.w3.org/1999/xlink"><g data-name="Canvas"><g data-name="Ui_kit" clip-path="url(#a)" fill="none"><path fill="#fff" d="M-993.998-1140H372.999v2473.995H-993.998z"/><g data-name="Group 13"><g data-name="icons"><g data-name="Group"><g data-name="tabs_kids"><g data-name="Group 5"><g data-name="Group 4"><g data-name="tabs"><g data-name="Group 20"><g data-name="Group 19 Copy"><g data-name="Udobstva_icon"><g data-name="Udobstva"><g data-name="PEL_icon" fill="#BDBDBD"><use xlink:href="#b" transform="translate(0 13)" data-name="Shape"/><use xlink:href="#c" transform="translate(23 34)" data-name="Shape"/><use xlink:href="#d" transform="translate(1 20)" data-name="Shape"/><use xlink:href="#e" transform="translate(9)" data-name="Shape"/><use xlink:href="#f" transform="translate(6 12.963)" data-name="Shape"/><use xlink:href="#g" transform="rotate(-6.001 160.154 -42.06)" data-name="Shape"/></g></g></g></g></g></g></g></g></g></g></g></g></g></g><defs><clipPath id="a"><path fill="#fff" transform="translate(-993.998 -1140)" d="M0 0h1367v2474H0z"/></clipPath><path id="b" fill-rule="evenodd" clip-rule="evenodd" d="M14 .554c.186.046.376.082.567.117.488.09.98.18 1.396.461.875.634 1.363 1.633 1.796 2.59.407.96.748 1.944 1.09 2.929.21.61.422 1.22.649 1.823.352.116.717.186 1.082.256h.002c.17.034.34.066.51.104.683.147 1.367.29 2.052.432l.027.006c.902.188 1.805.375 2.705.575 1.248.265 2.335 1.367 2.357 2.678-.027.03-.02.093-.012.163v.002c.007.062.015.128.001.183a2.7 2.7 0 0 1 1.326-.196 97.13 97.13 0 0 1 2.07-.01h.017c.411 0 .823.001 1.234-.001 1-.012 1.988.62 2.347 1.56.011.019.02.043.029.068v.003l.002.004c.03.083.061.173.171.144.604.007 1.208.004 1.813 0-.154-.217-.287-.447-.422-.676l-.004-.008-.005-.008-.004-.008c-.105-.18-.21-.359-.322-.533a2.026 2.026 0 0 1-.306-1.448c.083-.72.642-1.327 1.319-1.556.662-.226 1.454-.093 1.977.38.214.172.35.408.486.643.062.107.123.213.192.314l.094.155.014.022c.154.255.31.51.452.77.013-.807.234-1.62.736-2.266.63-.887 1.695-1.437 2.782-1.474a3.6 3.6 0 0 1 2.786 1.143c.606.626.947 1.481.992 2.345.033 1.093-.44 2.204-1.298 2.896-.3.278-.67.458-1.032.633l-.124.06c-.067.163-.13.327-.194.492l-.005.015c-.214.556-.428 1.113-.784 1.597a5.29 5.29 0 0 1-2.894 2.049c-.66.207-1.35.201-2.037.195a23.916 23.916 0 0 0-.535 0h-1.51c-.603 0-1.207 0-1.81-.002-1.395-.02-2.77-.685-3.635-1.778-.392-.472-.643-1.038-.867-1.602h-.721a86.2 86.2 0 0 1-1.526-.004c-1-.052-1.882-.913-1.926-1.917-.107.034-.213.072-.319.11-.296.105-.593.211-.91.243-.025 1.201-.891 2.302-2.048 2.626-.735.17-1.476-.002-2.198-.17-.107-.024-.214-.05-.32-.073-.98-.191-1.96-.387-2.934-.607-.01.343-.006.686-.002 1.029v.017c.007.53.014 1.06-.03 1.589.04.818.035 1.638.03 2.458v.013c-.002.567-.005 1.135.006 1.701a2.68 2.68 0 0 0-.004.85c-.002 1.867-.002 3.733-.002 5.599v4.445c-.023.298-.22.61-.526.684a2.66 2.66 0 0 1-.55.029c-.074-.001-.148-.003-.221-.001h-1.28c-.814-.002-1.628-.003-2.443.004.005 3.79.003 7.579.001 11.368.008.955-.43 1.913-1.188 2.504a3.264 3.264 0 0 1-2.257.7 3.294 3.294 0 0 1-2.58-1.563c-.284-.438-.403-.96-.45-1.473-.004-1.33-.003-2.66-.002-3.991v-.176c0-1.47.001-2.94-.004-4.41.005-1.033.01-1.96.001-2.881l-.01-.01c-.078-.07-.09-.08-.2-.068-.41-.007-.818-.006-1.227-.004H5.42c-.492.002-.984.003-1.476-.01-.112.009-2.187.011-3.255.009-.4-.01-.743-.405-.683-.801.061-.397.272-.874.484-1.354v-.002l.001-.002.002-.003c.23-.52.462-1.046.508-1.48.02-.002.18.062.338.125l.002.001c.155.062.306.122.325.12.191.19.218.344.245.496a.758.758 0 0 0 .25.495l-.06.37-.004.028c-.032.196-.065.403-.083.53h4.131c3.574.002 7.066.003 10.74-.006-.006-5.747-.004-11.494 0-17.241a181.137 181.137 0 0 1-3.635-.768c-.275-.047-.418-.31-.51-.545-.504-1.342-1.013-2.682-1.522-4.022a993.605 993.605 0 0 1-1.795-4.752c-.18-.463.252-.978.73-.97.273.052.574.192.66.48.486 1.263.964 2.528 1.442 3.794a487.79 487.79 0 0 0 1.783 4.677l.17.044c1.113.231 2.223.464 3.332.696l.017.004.152.032.242.05.035.008c1.46.306 2.916.611 4.374.914l.061.015c.384.097.808.205 1.177.007.393-.17.695-.54.757-.965.134-.66-.356-1.383-1.03-1.484L16.22 12.41c-.327-.06-.554-.361-.623-.672-.497-1.455-1-2.91-1.503-4.363l-.078-.225-.067-.195c-.376-1.084-.75-2.168-1.122-3.253a5.286 5.286 0 0 1-.177-.503c-.128-.408-.256-.817-.596-1.104-.453-.54-1.197-.828-1.888-.611.157-.223.354-.41.551-.598l.008-.007c.133-.126.266-.253.386-.391.04-.052.096-.098.152-.144.115-.093.232-.187.209-.344.48.134.97.23 1.46.328.357.07.715.141 1.069.226zm2.924 10.483c.53.128 1.063.236 1.596.344l.009.002a66.565 66.565 0 0 1 1.277.27l.037.008c.316.074.632.147.954.178l-.025.111.059-.082.8.169.009.002.027.005.013.003c.717.15 1.433.3 2.148.459.715.166 1.284.678 1.685 1.271.34-.036.712-.082.967-.333.41-.452.347-1.24-.077-1.664-.372-.422-.913-.521-1.449-.62a5.721 5.721 0 0 1-.666-.149 9.006 9.006 0 0 1-.155.07l-.031.014-.088-.144c-1.004-.197-2.006-.41-3.008-.622l-.01-.002c-.713-.151-1.425-.302-2.139-.448-.26-.034-.477-.229-.584-.461-.3-.745-.56-1.504-.82-2.263l-.005-.015-.002-.005c-.315-.92-.63-1.84-1.016-2.734-.285-.654-.591-1.316-1.072-1.852-.277-.296-.666-.358-1.052-.42-.164-.027-.326-.053-.48-.097a569.524 569.524 0 0 0 1.638 4.766l.016.048a661.35 661.35 0 0 1 1.444 4.191zm29.27 2.48c-.369.543-.955.928-1.615.992-1.24.166-2.448-.954-2.373-2.2.008-.987.79-1.883 1.763-2.047.8-.156 1.674.189 2.136.861.516.69.523 1.661.09 2.394zm-7.86-.104c.224.399.461.789.7 1.18l.007.012c.248.407.497.815.728 1.231.147.218.302.464.253.74-.006.259-.215.451-.426.568-.351.175-.798-.011-.974-.346a11.42 11.42 0 0 0-.26-.438l-.002-.004c-.085-.14-.171-.281-.25-.425-1.037-.01-2.073-.007-3.11-.003-.265.013-.55-.04-.733-.247-.125-.163-.197-.355-.27-.547-.056-.15-.113-.3-.195-.437-.164-.387-.613-.567-1.013-.547-.546.003-1.093.002-1.64.001h-.042c-.66 0-1.321-.001-1.982.004-.427-.013-.693.5-.482.856.024.022.048.047.072.071.11.114.228.235.396.232.628.008 1.257.007 1.886.005h.767c.328-.005.621.231.724.536.108.294.237.58.366.867l.001.002.087.192a3.302 3.302 0 0 0 2.39 1.74c.294.044.592.043.89.042h1.771c.798 0 1.597.001 2.396-.002 1.585-.049 3.07-1.201 3.488-2.723a4.037 4.037 0 0 1-1.663-.66c-.035.627-.932.872-1.306.386-.386-.63-.764-1.264-1.142-1.899l-.019-.03-.007-.013c-.398-.667-.796-1.334-1.202-1.996-.283-.416-1.006-.083-.91.392.099.303.273.571.446.839.09.138.18.277.26.421zM8.361 42.178c-.004-2.257-.008-4.514.02-6.77 1.159.014 2.318.01 3.478.002.014 1.313.012 2.626.01 3.94-.002.807-.003 1.615 0 2.422.006.19.002.382 0 .573-.007.324-.012.648.028.97-.04.682-.035 1.366-.03 2.05.005.532.01 1.064-.008 1.595-.046.618-.468 1.206-1.056 1.423-.703.301-1.593.075-2.067-.523-.296-.336-.392-.802-.376-1.238.006-1.482.004-2.963.001-4.444z"/><path id="c" fill-rule="evenodd" clip-rule="evenodd" d="M.659.018c-.413.02-.7.45-.654.836.026.8.018 1.598.01 2.397-.005.39-.009.781-.009 1.172a.756.756 0 0 0 .737.731c.285.002.57.001.856 0h.77c.008 4.06.007 8.118.006 12.176 0 2.624-.002 5.248 0 7.87-.001.177-.004.352-.006.528-.008.611-.016 1.223.025 1.832.167.006.168.02.004.04-.003.053-.008.108-.013.164-.03.343-.063.72.183.987.217.227.545.268.846.242 1.26-.003 2.52-.002 3.782 0 .266.024.5-.157.653-.356.127-.215.12-.462.113-.706a3485.712 3485.712 0 0 0-.001-6.664c-.003-3.656-.005-7.313.012-10.97 2.084.007 4.168.006 6.251.005 1.694 0 3.388-.002 5.082.002.043-.003.087-.002.131-.001a.819.819 0 0 0 .287-.028c.215-.238.444-.46.673-.684.197-.191.393-.383.58-.583l.03.033a4.032 4.032 0 0 0-.379.372 4.535 4.535 0 0 1-.355.352 6.672 6.672 0 0 1-.09.08c-.146.132-.295.266-.38.446l.168.006c.03.917.026 1.837.021 2.757-.002.571-.005 1.142 0 1.713.002 1.037.002 2.075 0 3.113 0 1.627-.003 3.254.007 4.88l.214.008-.079.101c.21.181.404.38.6.58.244.25.489.5.761.713-.013-2.863-.01-5.726-.009-8.59.002-1.794.003-3.588 0-5.382-.007-.103-.003-.209 0-.315.009-.228.017-.458-.092-.661a.877.877 0 0 1-.066-.09c-.064-.095-.134-.198-.255-.172-.074-.116-.213-.12-.338-.123l-.056-.002h-13.4c-.253-.02-.522.08-.662.297-.164.21-.156.477-.15.736.003.083.006.164.002.243-.003 2.228-.001 4.455 0 6.683.003 3.578.005 7.156-.01 10.733-.376-.01-.752-.007-1.127-.005-.491.003-.982.007-1.47-.019.01-1.3.008-2.599.006-3.899-.001-.82-.002-1.64 0-2.462-.002-2.06-.001-4.119 0-6.179.002-3.261.004-6.522-.007-9.783a107.3 107.3 0 0 1 3.032-.017c.615.002 1.23.004 1.845 0h5.523c3.273 0 6.546.001 9.819-.004.01 1.872.008 3.743.006 5.615a1504.76 1504.76 0 0 0 0 3.491c-.003 1.664-.001 3.328 0 4.992.003 2.756.006 5.513-.012 8.27-.86-.01-1.718-.007-2.577-.002a49.786 49.786 0 0 1-.01-1.685c.002-.52.005-1.042-.007-1.562a4.721 4.721 0 0 0-.564-.59c-.07-.066-.142-.133-.211-.2a5.96 5.96 0 0 0-.73-.699c.025 1.018.021 2.037.018 3.055-.002.609-.004 1.217 0 1.826.003.089 0 .18-.002.271-.008.223-.015.447.075.655.143.2.35.41.62.397.799.009 1.598.008 2.397.006.571 0 1.143-.001 1.715.002a.751.751 0 0 0 .585-.248c.198-.186.196-.455.194-.71-.001-.071-.002-.14.002-.206.003-5.889.002-11.777.001-17.665V6.8c.002-.167 0-.335-.002-.503-.005-.388-.01-.778.04-1.162.231.031.463.022.694.013a4.84 4.84 0 0 1 .552-.002l.022.002c.255.016.53.033.757-.105.23-.112.34-.38.346-.621.016-.54.012-1.08-.03-1.618.062-.536.041-1.074.02-1.611-.008-.225-.017-.45-.02-.674-.087-.36-.483-.554-.838-.514h-3.387c-6.773.002-13.547.002-20.32 0-.452.02-.904.012-1.357.005C1.591.003 1.125-.004.66.018zm.84 2.663c0-.392 0-.783-.016-1.174.065-.104.157-.077.251-.05a.537.537 0 0 0 .124.027c3.76-.006 7.521-.005 11.282-.004 4.455.002 8.91.004 13.364-.007-.003.31.002.62.007.93.006.425.013.851-.002 1.277l-6.425-.002c-6.192-.002-12.384-.004-18.576.005-.01-.334-.01-.668-.01-1.002z"/><path id="d" d="M4.848 0c.325.314.653.628.937.988A.7.7 0 0 0 6 1.179C4.494 9.027 2.933 16.861 1.41 24.705c-.077.431-.197.856-.238 1.295-.205-.05-.305-.266-.447-.411-.234-.282-.521-.51-.725-.822.938-4.68 1.832-9.37 2.76-14.054C3.45 7.141 4.167 3.575 4.848 0z"/><path id="e" fill-rule="evenodd" clip-rule="evenodd" d="M10.998 5.182C10.894 2.977 9.312.923 7.192.28 5.003-.494 2.41.392 1.065 2.257A5.462 5.462 0 0 0 .013 5.85c.075 1.439.77 2.828 1.858 3.771.833.757 1.916 1.209 3.028 1.357a.41.41 0 0 0 .052 0l.045.005c1.42.111 2.887-.304 3.982-1.228 1.03-.82 1.725-2.03 1.956-3.321.07-.35.068-.694.065-1.055v-.196zm-8.91-1.804c.55-.93 1.521-1.565 2.562-1.815 1.001-.203 2.084-.044 2.95.509 1.24.728 1.989 2.162 1.938 3.59a3.538 3.538 0 0 1-.562-.035c-.27-.03-.54-.062-.812-.002l.037.17c.068-.06.132-.124.192-.193l.024-.001c.178-.008.376-.016.495.14.16-.118.388-.081.583-.05l.047.008c-.062.725-.266 1.463-.705 2.054-.046.069-.094.086-.146.052l.07.072c-.715.975-1.885 1.61-3.098 1.646a3.959 3.959 0 0 1-2.456-.722c-1.05-.709-1.71-1.948-1.736-3.21a3.94 3.94 0 0 1 .618-2.213zM8.2 5.796l-.1-.008-.124-.01.11.116c-.167.091-.298.226-.43.36-.108.111-.216.222-.346.31-.096.118-.196.242-.238.39-.015.113.03.215.076.316.051.114.102.228.066.356l-.01.033c-.034.124-.069.25-.082.379l.03-.11c.034-.127.069-.255.085-.387a.606.606 0 0 0-.078-.284c-.055-.12-.11-.24-.05-.372.03-.087.1-.14.168-.194.059-.046.117-.091.153-.158.143-.22.342-.382.54-.544.078-.063.156-.126.23-.193z"/><path id="f" d="M2.85.295C3.528.019 4.792-.065 5.51.05L5.4.515c-.438.437-.77.564-1.207 1-.41 0-1.45.37-1.781.728-.337.334-.511.78-.664 1.218-.308.175-.497.49-.763.715-.274.29-.59.54-.829.861A3.933 3.933 0 0 1 0 4.861C.177 4.22.275 3.56.437 2.915.769 1.73 1.68.713 2.85.295z"/><path id="g" d="M2.533.006c-.066.183-.094.272-.142.422a535.804 535.804 0 0 0-1.184 4.467c-.186-.055-.32-.025-.45-.138-.333-.307-.364-.198-.742-.465-.026-.044-.021-.04.035-.327.123-.534.389-2.037.544-2.566C.898.6 2.48-.068 2.533.006z"/></defs></svg>