<svg width="59" height="61" viewBox="0 0 59 61" xmlns="http://www.w3.org/2000/svg" xmlns:xlink="http://www.w3.org/1999/xlink"><g data-name="Canvas"><g data-name="Ui_kit" clip-path="url(#a)" fill="none"><path fill="#fff" d="M-820.1-1404.2H524.118v2432.768H-820.1z"/><g data-name="Group 13"><g data-name="icons"><g data-name="Group"><g data-name="tabs_kids"><g data-name="Group 5"><g data-name="Group 4"><g data-name="tabs"><g data-name="Group 19 Copy 2"><g data-name="Vodopodgotovka_icon"><g data-name="Vodopodgotovka"><g data-name="filter_icon"><use xlink:href="#b" fill="#FF680D" transform="translate(5.9 34.417) scale(.98333)" data-name="Shape"/><use xlink:href="#c" fill="#FF680D" transform="scale(.98333)" data-name="Shape"/><g data-name="Line 2" transform="translate(29.5 23.6) scale(.98333)"><use xlink:href="#d" fill="#06C5B2"/><use xlink:href="#e" stroke="#FF680D" stroke-linecap="square"/></g><g data-name="Line 2 Copy" transform="translate(32.45 23.6) scale(.98333)"><use xlink:href="#d" fill="#06C5B2"/><use xlink:href="#f" stroke="#FF680D" stroke-linecap="square"/></g><g data-name="Line 2 Copy 2" transform="translate(26.55 23.6) scale(.98333)"><use xlink:href="#d" fill="#06C5B2"/><use xlink:href="#g" stroke="#FF680D" stroke-linecap="square"/></g></g></g></g></g></g></g></g></g></g></g></g></g></g><defs><clipPath id="a"><path fill="#fff" transform="translate(-820.1 -1404.2) scale(.98333)" d="M0 0h1367v2474H0z"/></clipPath><path id="b" fill-rule="evenodd" clip-rule="evenodd" d="M47.088.179c1.379-.227 2.794-.188 4.212-.15.85.024 1.702.048 2.548.014.184.726.184 1.453.092 2.225a760.786 760.786 0 0 0-.672 10.3 782.765 782.765 0 0 1-.662 10.18c-.041.418-.058.84-.074 1.264v.011c-.04.996-.078 1.994-.432 2.947-10.938-.03-21.856-.02-32.781-.01h-.104c-5.483.005-10.967.01-16.456.01-.644.182-1.15-.5-1.058-1.09-.275-4.268-.563-8.537-.85-12.805C.563 8.807.276 4.538 0 .27 2.016-.042 4.065.048 6.09.137h.02c.324.015.649.03.972.042.046.772.092 1.544.137 2.361h39.639c.033-.307.036-.602.04-.888v-.003c.006-.517.012-1.003.19-1.47zm1.288 1.226a414.035 414.035 0 0 0-.278 7.77v.003c-.12 4.08-.24 8.151-.55 12.207-8.14.082-16.279.065-24.418.049-5.426-.011-10.852-.022-16.278-.004-.504-.64-.5-1.447-.498-2.224v-.015c.001-.21.002-.42-.008-.621-.027-3.338-.163-6.676-.3-10.014a426.39 426.39 0 0 1-.252-7.151H1.518C2.069 9.35 2.62 17.298 3.08 25.245c1.588.261 3.196.225 4.81.19l.003-.001c.908-.02 1.818-.04 2.729-.008h40.374c.4-4.98.713-9.978 1.025-14.972v-.004l.004-.066c.187-2.996.374-5.99.58-8.98h-4.23zm-40.8 11.299c-.08-2.95-.16-5.898-.357-8.847h39.593c-.061 2.383-.16 4.758-.257 7.131-.122 2.963-.244 5.924-.295 8.898-1.164.182-2.349.162-3.54.142-.597-.01-1.196-.02-1.794-.005-4.378.018-8.755.007-13.133-.004-6.567-.016-13.133-.033-19.7.049-.368-.98-.382-2.019-.397-3.046a34.699 34.699 0 0 0-.017-.768c-.04-1.184-.071-2.367-.103-3.55z"/><path id="c" fill-rule="evenodd" clip-rule="evenodd" d="M8.142 0C5.542.045 2.94.045.34 0L.261.207.258.215.255.222c-.159.411-.312.804-.234 1.262v12.64l-.002.125v.013c-.008.458-.02 1.11.64.987.697 0 1.396.008 2.099.015h.022c1.776.018 3.569.037 5.362-.06.445-.674.388-1.557.332-2.427-.03-.466-.06-.928-.013-1.351 2.249.016 4.497.003 6.745-.01 4.048-.022 8.096-.045 12.143.1.046 1.71.046 3.373.046 5.083H26v5.398s1.241-.026 1.532 0a94.068 94.068 0 0 1 3.671-.01c1.971.02 3.97.04 5.842-.125-.042-1.655-.042-3.561-.042-5.263h-1.487c-.063-1.104-.023-2.22.018-3.332.076-2.106.153-4.204-.474-6.205-.867-2.069-2.966-3.598-5.247-3.688-3.153-.06-6.306-.05-9.459-.038h-.032c-3.954.014-7.907.028-11.86-.097l.003-.495V2.74C8.477 1.816 8.49.875 8.142 0zM1.389 13.81V1.53c1.273.03 2.525.02 3.784.01h.01l.081-.001c.607-.005 1.215-.01 1.828-.01-.039 1.774-.028 3.54-.016 5.304.015 2.353.03 4.702-.075 7.067-.935-.045-1.87-.045-2.806-.045-.935 0-1.87 0-2.806-.045zm7.072-9.087v5.173H26.62c1.05 0 2.19.81 2.145 1.935.06 1.048.04 2.098.02 3.146v.002c-.01.525-.02 1.05-.02 1.575.408 0 .819.002 1.231.005h.108c1.348.009 2.709.017 4.044-.05-.045-1.237-.034-2.474-.023-3.711.012-1.237.023-2.474-.023-3.711-.136-2.384-2.326-4.499-4.79-4.409-6.935.045-13.87.045-20.85.045zm27.055 15.88h-8.167c.083-.294.04-.664-.003-1.034-.076-.65-.152-1.301.46-1.53 1.094-.02 2.188-.015 3.283-.01 1.46.008 2.92.016 4.381-.036 0 .427.012.866.023 1.305.011.438.023.877.023 1.304z"/><path id="d" fill-rule="evenodd" clip-rule="evenodd" d="M1.5.5v12-12z"/><path id="e" d="M1.5.5v12"/><path id="f" d="M1.5.5v12"/><path id="g" d="M1.5.5v12"/></defs></svg>