<svg width="78" height="61" viewBox="0 0 78 61" xmlns="http://www.w3.org/2000/svg" xmlns:xlink="http://www.w3.org/1999/xlink"><g data-name="Canvas"><g data-name="Ui_kit" clip-path="url(#a)" fill="none"><path fill="#fff" d="M-652.052-1123.38H696.115v2439.916H-652.052z"/><g data-name="Group 13"><g data-name="icons"><g data-name="Group"><g data-name="tabs_kids"><g data-name="Group 5"><g data-name="Group 4"><g data-name="tabs"><g data-name="Group 20"><g data-name="Group 19 Copy"><g data-name="swimming-pool_icon"><g data-name="Group"><g data-name="#000000ff" fill="#BDBDBD"><use xlink:href="#b" transform="translate(27.27) scale(.98622)" data-name="Shape"/><use xlink:href="#c" transform="translate(0 44.393) scale(.98622)" data-name="Shape"/><use xlink:href="#d" transform="translate(.002 53.922) scale(.98622)" data-name="Shape"/></g></g></g></g></g></g></g></g></g></g></g></g></g></g><defs><clipPath id="a"><path fill="#fff" transform="translate(-652.052 -1123.38) scale(.98622)" d="M0 0h1367v2474H0z"/></clipPath><path id="b" fill-rule="evenodd" clip-rule="evenodd" d="M3.897 2.872C7.1.038 11.937-.824 15.884.86c.563.276.7 1.118.256 1.56-.334.505-.99.305-1.451.134-2.748-.954-5.96-.644-8.37 1.025-2.605 1.682-4.34 4.704-4.302 7.826l.001 1.763c0 .977 0 1.954.004 2.931H21.35a43.24 43.24 0 0 0 .001-2.334v-.002c-.029-1.691-.058-3.385.331-5.038.856-3.571 3.575-6.598 6.973-7.938C31.411-.28 34.583-.28 37.304.895c.532.341.597 1.161.13 1.589-.342.419-.882.24-1.328.09a9.08 9.08 0 0 0-.167-.054c-2.702-.92-5.83-.59-8.21 1.013-2.782 1.66-4.377 4.916-4.36 8.111-.007 4.37-.005 8.74-.002 13.11.003 5.958.006 11.917-.015 17.876.078 1.15-1.748 1.396-1.95.261-.071-1.044-.06-2.091-.049-3.139.007-.643.014-1.286.002-1.928H2.017c-.006.642-.002 1.285.001 1.928v.003c.006.963.011 1.926-.015 2.887.039.71-.84 1.281-1.451.888-.532-.222-.558-.878-.551-1.369.005-5.126.004-10.252.004-15.38C.004 21.656.003 16.53.008 11.404c-.022-3.235 1.47-6.405 3.89-8.531zm-1.88 23.113h19.338v-3.374c0-1.5 0-2.999-.002-4.498H2.02l-.001 3.936c0 1.312 0 2.624-.002 3.936zm0 9.822c.003-2.602.003-5.204 0-7.806 6.447-.002 12.892-.002 19.338 0a4231.72 4231.72 0 0 0 0 7.806c-6.446.005-12.89.003-19.335 0h-.003z"/><path id="c" d="M7.003.228c3.484-.757 6.998.547 10.04 2.17 2.105 1.008 4.082 2.453 6.474 2.668 1.51.044 3.085-.056 4.455-.747C31.117 2.803 34.119.775 37.611.155c2.994-.542 6.012.403 8.631 1.818 2.333 1.165 4.525 2.883 7.205 3.12 1.334.2 2.646-.212 3.892-.644 2.14-.74 3.97-2.144 6.093-2.93C65.814.47 68.442-.165 71.054.148c2.59.422 4.928 1.696 7.178 2.985 1.027.571.03 2.287-.958 1.682-1.88-1.067-3.819-2.117-5.95-2.575-3.081-.57-6.146.541-8.84 1.955-2.378 1.267-4.8 2.646-7.528 2.936-1.653.11-3.345-.102-4.852-.82-2.77-1.318-5.32-3.137-8.297-3.979-1.902-.517-3.945-.349-5.779.344-2.58.93-4.94 2.354-7.393 3.562-2.228 1-4.793 1.106-7.134.446-1.475-.432-2.843-1.144-4.17-1.91-2.66-1.307-5.4-2.871-8.465-2.75C6.1 2.18 3.63 3.603 1.273 4.933.498 5.108-.27 4.244.093 3.497c.348-.479.926-.703 1.407-1.02C3.236 1.511 5.057.664 7.003.227z"/><path id="d" d="M6.767.323c3.253-.808 6.603.268 9.51 1.716 1.316.722 2.694 1.325 4.013 2.038 1.585.778 3.389 1.188 5.157.971 2.155-.168 3.979-1.46 5.83-2.455C33.722 1.336 36.29.03 39.106 0c3.39-.027 6.488 1.565 9.348 3.217 1.953 1.16 4.143 2.227 6.481 1.922 2-.357 3.914-1.143 5.616-2.246C63.667 1.199 67.144-.232 70.76.09c2.674.344 5.076 1.67 7.392 2.968.712.349.664 1.52-.073 1.809-.69.285-1.277-.318-1.858-.591-2.326-1.27-4.91-2.48-7.631-2.158-1.103.059-2.149.425-3.19.764-2.984.981-5.493 3.059-8.558 3.837-2.221.696-4.706.623-6.815-.402-3.453-1.65-6.708-4.192-10.687-4.304-3.799.098-6.952 2.468-10.272 4.01-2.729 1.321-6.003 1.482-8.803.272C17.07 4.84 14.06 2.75 10.537 2.163c-3.33-.564-6.369 1.22-9.188 2.722C.47 5.353-.499 3.955.294 3.3A20.55 20.55 0 0 1 6.767.323z"/></defs></svg>