<svg width="28" height="73" viewBox="0 0 28 73" xmlns="http://www.w3.org/2000/svg" xmlns:xlink="http://www.w3.org/1999/xlink"><g data-name="Canvas"><g data-name="Ui_kit" clip-path="url(#a)" fill="none"><path fill="#fff" d="M-126.943-858.963h1350.435v2444.02H-126.943z"/><g data-name="Group 13"><g data-name="Group 11"><g data-name="Group 2"><g data-name="Group"><use xlink:href="#b" fill="#FF680D" fill-opacity=".6" transform="matrix(-.98788 0 0 .98788 26.179 1.482)" data-name="Vector"/></g></g></g></g></g></g><defs><clipPath id="a"><path fill="#fff" transform="translate(-126.943 -858.963) scale(.98788)" d="M0 0h1367v2474H0z"/></clipPath><path id="b" d="M26.22.872a1.5 1.5 0 1 0-2.44-1.744L26.22.872zM0 35l-1.22-.872-.623.872.622.872L0 35zm23.78 35.872a1.5 1.5 0 0 0 2.44-1.744l-2.44 1.744zm0-71.744l-25 35 2.44 1.744 25-35-2.44-1.744zm-25 36.744l25 35 2.44-1.744-25-35-2.44 1.744z"/></defs></svg>