<svg width="67" height="86" viewBox="0 0 67 86" xmlns="http://www.w3.org/2000/svg" xmlns:xlink="http://www.w3.org/1999/xlink"><g data-name="Canvas"><g data-name="Group" fill="none"><g mask="url(#a)" stroke-width="2" transform="scale(.98592)" data-name="Ellipse"><use xlink:href="#b" stroke="#FF680D"/></g><use xlink:href="#c" fill="#FF680D" transform="translate(25.618 20.698) scale(.98592)" data-name="2"/></g></g><defs><path id="d" d="M67.957 33.988c0 18.771-31.73 52.982-31.98 52.982S0 52.76 0 33.988C0 15.217 15.213 0 33.978 0c18.766 0 33.979 15.217 33.979 33.988z"/><path id="b" d="M67.957 33.988c0 18.771-31.73 52.982-31.98 52.982S0 52.76 0 33.988C0 15.217 15.213 0 33.978 0c18.766 0 33.979 15.217 33.979 33.988z"/><mask id="a" fill="#fff"><use xlink:href="#d"/></mask><path id="c" d="M15.495 26H1.604v-3.008l6.398-6.726c1.577-1.796 2.366-3.222 2.366-4.28 0-.856-.187-1.508-.56-1.955-.375-.446-.917-.67-1.628-.67-.702 0-1.271.301-1.709.903-.437.592-.656 1.335-.656 2.228H1.194a6.5 6.5 0 0 1 .916-3.377 6.41 6.41 0 0 1 2.543-2.433c1.084-.584 2.297-.875 3.637-.875 2.15 0 3.805.496 4.962 1.49 1.167.993 1.75 2.42 1.75 4.28 0 .783-.145 1.549-.437 2.296-.292.738-.747 1.518-1.367 2.338-.611.811-1.6 1.9-2.967 3.268l-2.57 2.966h7.834V26z"/></defs></svg>