<svg width="746" height="30" xmlns="http://www.w3.org/2000/svg" xmlns:xlink="http://www.w3.org/1999/xlink"><defs><clipPath id="c"><path transform="translate(-483.552 -814.637) scale(.99603)" fill="#fff" d="M0 0h1367v2474H0z"/></clipPath><path d="M67.957 33.988c0 18.771-31.73 52.982-31.98 52.982S0 52.76 0 33.988C0 15.217 15.213 0 33.978 0c18.766 0 33.979 15.217 33.979 33.988z" id="a"/><path d="M67.957 33.988c0 18.771-31.73 52.982-31.98 52.982S0 52.76 0 33.988C0 15.217 15.213 0 33.978 0c18.766 0 33.979 15.217 33.979 33.988z" id="e"/><mask id="d"><use xlink:href="#a"/></mask><path d="M67.957 33.988c0 18.771-31.73 52.982-31.98 52.982S0 52.76 0 33.988C0 15.217 15.213 0 33.978 0c18.766 0 33.979 15.217 33.979 33.988z" id="g"/><mask id="f"><use xlink:href="#a"/></mask><path d="M67.957 33.988c0 18.771-31.73 52.982-31.98 52.982S0 52.76 0 33.988C0 15.217 15.213 0 33.978 0c18.766 0 33.979 15.217 33.979 33.988z" id="i"/><mask id="h"><use xlink:href="#a"/></mask><path d="M68 34c0 18.778-31.75 53-32 53S0 52.778 0 34 15.222 0 34 0s34 15.222 34 34z" id="b"/><path d="M68 34c0 18.778-31.75 53-32 53S0 52.778 0 34 15.222 0 34 0s34 15.222 34 34z" id="k"/><mask id="j"><use xlink:href="#b"/></mask><path d="M124.691.08a.501.501 0 0 0-.542.84l.389.25a.5.5 0 1 0 .541-.84l-.388-.25zm1.943 1.249a.5.5 0 1 0-.541.841l.777.5a.5.5 0 1 0 .541-.841l-.777-.5zm2.331 1.5a.499.499 0 1 0-.54.84l.777.5a.5.5 0 0 0 .541-.84l-.778-.5zm2.332 1.5a.5.5 0 0 0-.748.272l-.607.003a.5.5 0 0 0 .006 1l.724-.003a.5.5 0 0 0 .625.068l.389-.25.654-.42-.654-.421-.389-.25zm-1.554 2.34a.5.5 0 0 0-.541-.842l-.777.5a.499.499 0 1 0 .54.841l.778-.5zm-2.332 1.5a.5.5 0 0 0-.541-.842l-.777.5a.5.5 0 1 0 .541.841l.777-.5zm-2.332 1.499a.5.5 0 1 0-.541-.842l-.389.25a.5.5 0 0 0 .542.842l.388-.25zm7.872-5.066a.5.5 0 0 0-.004 1c.332 0 .663.003.993.005a.5.5 0 0 0 .007-1l-.996-.005zm-5.019 1.02a.5.5 0 0 0-.012-1l-.508.006-.509.007a.5.5 0 1 0 .015 1l.508-.007.506-.007zm8.034-.995a.5.5 0 1 0-.013 1l1.006.015a.5.5 0 0 0 .016-1l-1.009-.015zM124.895 5.67a.5.5 0 0 0-.02-1l-1.01.022a.5.5 0 1 0 .023 1l1.007-.022zm14.088-.989a.5.5 0 0 0-.023 1l.995.024a.5.5 0 1 0 .026-1l-.998-.024zm-17.102 1.062a.5.5 0 1 0-.028-1l-1.001.03a.501.501 0 0 0 .031 1l.998-.03zm20.106-.98a.5.5 0 1 0-.032 1c.336.01.673.022 1.008.034a.5.5 0 1 0 .035-1c-.336-.011-.673-.023-1.011-.033zm-23.125 1.078a.5.5 0 1 0-.036-1l-1.012.04a.5.5 0 1 0 .039.998l1.009-.038zm26.148-.966a.5.5 0 1 0-.042.999l.997.043a.5.5 0 1 0 .045-.999c-.333-.015-.666-.03-1-.043zm-29.167 1.089a.5.5 0 0 0-.044-1c-.335.016-.669.03-1.003.047a.5.5 0 1 0 .047.999c.333-.016.666-.032 1-.046zm32.16-.95a.501.501 0 0 0-.051.998l1.01.053a.5.5 0 1 0 .054-.998c-.336-.019-.674-.036-1.013-.054zM112.835 6.11a.5.5 0 1 0-.052-.999l-1.014.055a.5.5 0 0 0 .055.999c.336-.02.674-.037 1.011-.055zm38.196-.928a.5.5 0 0 0-.061.998c.333.02.666.041.998.063a.5.5 0 0 0 .063-.998c-.332-.022-.666-.042-1-.063zm-41.219 1.1a.5.5 0 0 0-.061-.998c-.335.02-.67.04-1.004.062a.5.5 0 1 0 .063.998l1.002-.062zm44.209-.904a.5.5 0 1 0-.07.997l1.004.072a.5.5 0 1 0 .074-.997l-1.008-.072zm-47.207 1.098a.5.5 0 0 0-.069-.998c-.339.024-.677.047-1.015.072a.5.5 0 0 0 .071.997l1.013-.071zm50.23-.872a.5.5 0 1 0-.08.997l.998.081a.5.5 0 0 0 .083-.996l-1.001-.082zm-53.257 1.093a.5.5 0 0 0-.077-.997l-1.004.079a.5.5 0 0 0 .079.996l1.002-.078zm56.246-.84a.5.5 0 0 0-.089.996l.997.091a.5.5 0 1 0 .092-.996l-1-.09zm-59.24 1.083a.5.5 0 0 0-.085-.997l-1.01.087a.5.5 0 0 0 .088.996l1.007-.086zm62.255-.799a.5.5 0 1 0-.099.996l.997.1a.5.5 0 1 0 .102-.995l-1-.1zM97.771 7.21a.5.5 0 0 0-.093-.996l-1.005.095a.5.5 0 0 0 .096.996l1.002-.095zm68.262-.757a.5.5 0 0 0-.108.994l.993.11a.5.5 0 1 0 .111-.994l-.996-.11zM94.777 7.5a.5.5 0 0 0-.1-.995l-1.002.103a.5.5 0 1 0 .104.994l.998-.102zm74.264-.706a.5.5 0 1 0-.118.993l.994.12a.5.5 0 1 0 .121-.993l-.997-.12zM91.763 7.817a.5.5 0 1 0-.108-.994l-1.004.111a.5.5 0 1 0 .111.994l1.001-.11zm80.256-.655a.5.5 0 1 0-.128.992l.992.13a.5.5 0 0 0 .131-.992l-.995-.13zm-83.246.994a.5.5 0 0 0-.117-.993l-.995.118a.5.5 0 1 0 .12.993l.992-.118zm-3.006.365a.5.5 0 1 0-.125-.992l-1.002.128a.5.5 0 1 0 .127.991l1-.127zm89.253-.958a.5.5 0 0 0-.137.99l.992.14a.5.5 0 0 0 .14-.99l-.995-.14zM82.78 8.909a.5.5 0 0 0-.132-.992l-.991.134a.5.5 0 0 0 .135.99l.989-.132zm95.208-.92a.5.5 0 1 0-.147.989l.994.15a.5.5 0 0 0 .15-.99l-.997-.15zM79.781 9.322a.5.5 0 1 0-.14-.99l-1 .143a.5.5 0 0 0 .142.99c.332-.049.665-.096.998-.143zm101.203-.873a.5.5 0 1 0-.157.987c.33.053.659.105.987.159a.5.5 0 0 0 .16-.988 319.98 319.98 0 0 0-.99-.158zM76.804 9.756a.5.5 0 0 0-.15-.989l-.99.15a.5.5 0 0 0 .15.989l.99-.15zm107.134-.824a.5.5 0 0 0-.166.986l1 .17a.5.5 0 1 0 .169-.985l-1.003-.17zm-110.13 1.285a.5.5 0 1 0-.155-.987c-.334.052-.666.105-.997.159a.5.5 0 1 0 .158.987l.995-.159zm113.12-.765a.5.5 0 0 0-.176.984l.981.177a.5.5 0 0 0 .179-.983c-.327-.06-.655-.12-.984-.178zM70.842 10.699a.5.5 0 0 0-.164-.987l-.996.167a.5.5 0 0 0 .167.986l.993-.166zm119.039-.703a.5.5 0 1 0-.186.982l.993.19a.5.5 0 0 0 .189-.982l-.996-.19zm-122.03 1.212a.5.5 0 0 0-.172-.985l-.992.175a.5.5 0 0 0 .174.985l.99-.175zm124.998-.635a.5.5 0 1 0-.196.98l.972.196a.5.5 0 0 0 .199-.98l-.975-.196zM64.9 11.736a.5.5 0 0 0-.18-.984l-1.005.185a.5.5 0 0 0 .183.984l1.002-.185zm130.901-.558a.5.5 0 0 0-.206.979l.984.209a.5.5 0 0 0 .21-.978l-.988-.21zm-133.89 1.117a.5.5 0 0 0-.188-.982l-.986.19a.5.5 0 0 0 .19.981l.984-.19zm136.829-.483a.5.5 0 0 0-.216.977l.973.216a.5.5 0 1 0 .219-.975l-.976-.218zm-139.779 1.06a.5.5 0 1 0-.196-.981l-.999.2a.5.5 0 1 0 .198.98l.997-.2zm142.732-.391a.5.5 0 1 0-.226.974l.972.227a.5.5 0 0 0 .229-.973 395.62 395.62 0 0 0-.975-.228zm-145.7.995a.5.5 0 0 0-.204-.979l-.978.205a.5.5 0 0 0 .206.979l.975-.205zm-2.953.627a.5.5 0 0 0-.212-.977l-.99.216a.5.5 0 1 0 .214.977l.988-.216zm151.571-.93a.5.5 0 0 0-.236.972l.985.241a.5.5 0 1 0 .239-.97c-.327-.081-.657-.162-.988-.242zm-154.51 1.58a.5.5 0 1 0-.22-.976l-.981.222a.5.5 0 0 0 .222.975c.325-.074.651-.148.979-.221zm157.445-.85a.5.5 0 1 0-.246.969c.32.081.638.163.955.245a.5.5 0 1 0 .25-.969 266.01 266.01 0 0 0-.959-.245zM47.145 15.43a.5.5 0 0 0-.228-.974l-.979.23a.5.5 0 0 0 .23.974l.977-.23zm163.324-.769a.5.5 0 1 0-.256.967l.966.258a.5.5 0 1 0 .26-.965 212.54 212.54 0 0 0-.97-.26zM44.221 16.128a.5.5 0 1 0-.236-.972l-.992.242a.5.5 0 1 0 .24.971l.988-.241zm169.142-.681a.5.5 0 1 0-.267.964c.328.09.654.182.978.273a.5.5 0 0 0 .271-.963l-.982-.274zm-172.08 1.407a.5.5 0 0 0-.243-.97l-.962.243a.5.5 0 1 0 .247.97c.318-.082.637-.162.959-.243zm174.99-.584a.5.5 0 0 0-.278.961l.947.276a.5.5 0 0 0 .281-.96l-.95-.277zM38.352 17.605a.5.5 0 0 0-.252-.968l-.974.255a.5.5 0 0 0 .255.967c.322-.085.645-.17.97-.254zm180.821-.48a.5.5 0 0 0-.288.958l.951.289a.5.5 0 1 0 .292-.957 263.71 263.71 0 0 0-.955-.29zm-183.726 1.25a.5.5 0 0 0-.26-.965l-.987.268a.5.5 0 1 0 .264.964l.983-.267zm186.603-.365a.5.5 0 1 0-.299.954l.96.304a.5.5 0 0 0 .303-.953c-.319-.102-.64-.203-.964-.305zM32.534 19.175a.5.5 0 0 0-.269-.963c-.324.09-.646.181-.966.272a.5.5 0 0 0 .272.962l.963-.27zm192.373-.25a.5.5 0 1 0-.31.95l.969.318a.5.5 0 0 0 .314-.949 234.2 234.2 0 0 0-.973-.32zm-195.288 1.08a.5.5 0 1 0-.278-.962l-.958.279a.5.5 0 0 0 .28.96l.956-.278zm198.154-.126a.5.5 0 1 0-.321.947c.32.108.637.217.951.325a.5.5 0 0 0 .326-.945c-.316-.109-.634-.218-.956-.327zm-201.05.976a.5.5 0 1 0-.286-.958l-.967.291a.5.5 0 1 0 .29.957l.963-.29zm-2.878.876a.5.5 0 0 0-.295-.956l-.976.304a.5.5 0 1 0 .298.954l.973-.302zm206.786-.861a.5.5 0 1 0-.333.943c.313.11.623.22.929.33a.5.5 0 0 0 .338-.94c-.308-.111-.619-.222-.934-.333zM20.979 22.632a.5.5 0 1 0-.304-.953l-.984.317a.5.5 0 1 0 .308.951c.323-.104.65-.21.98-.315zm212.493-.737a.5.5 0 1 0-.346.939c.309.114.615.227.916.34a.5.5 0 1 0 .35-.938l-.92-.34zM18.104 23.567a.5.5 0 1 0-.314-.95l-.973.325a.5.5 0 0 0 .318.948l.97-.323zm218.191-.61a.5.5 0 1 0-.358.934c.309.119.614.236.914.353a.5.5 0 1 0 .362-.932l-.918-.355zM15.242 24.531a.5.5 0 1 0-.324-.946l-.969.334a.5.5 0 0 0 .328.945l.965-.333zm223.857-.474a.5.5 0 0 0-.372.928c.315.126.623.25.926.374a.5.5 0 1 0 .376-.927l-.93-.375zM12.401 25.523a.5.5 0 0 0-.335-.943c-.333.118-.659.235-.978.35a.5.5 0 1 0 .339.94c.318-.114.642-.23.974-.347zm229.471-.33a.5.5 0 0 0-.387.922c.326.136.644.27.952.402a.499.499 0 1 0 .391-.92c-.31-.132-.628-.267-.956-.404zM9.547 26.556a.5.5 0 1 0-.347-.938c-.327.12-.646.24-.957.356a.5.5 0 1 0 .35.936c.31-.116.627-.234.954-.354zm235.128-.16a.5.5 0 0 0-.402.915l.887.394a.5.5 0 0 0 .409-.913c-.286-.128-.584-.26-.894-.396zM6.712 27.624a.5.5 0 1 0-.36-.933c-.32.123-.627.242-.922.358a.5.5 0 0 0 .364.93l.918-.355zm240.707.013a.5.5 0 1 0-.422.907c.319.148.614.287.885.416a.5.5 0 0 0 .43-.902c-.273-.13-.571-.271-.893-.421zM3.908 28.729a.5.5 0 0 0-.375-.927l-.913.372A.5.5 0 1 0 3 29.1c.278-.115.58-.238.908-.37zm246.24.228a.498.498 0 0 0-.388-.027.494.494 0 0 0-.189.041l-.325.143-.083.037-.021.01-.005.002h-.002a.5.5 0 1 0 .413.911l-.207-.455.343-.15.166.233-.297.37.019-.009.079-.035.319-.14.01-.004.126.177a.5.5 0 1 0 .469-.883l-.002-.001-.006-.003-.02-.011-.081-.043a57.451 57.451 0 0 0-.318-.163zm-249.019.931a.5.5 0 0 0-.399-.917l-.325.143-.082.037-.021.01-.006.002H.294a.5.5 0 1 0 .413.911L.5 29.62l.888-.389-.676.842.02-.009.079-.035.318-.14zM373.532.08a.5.5 0 1 0-.541.84l.388.25a.5.5 0 0 0 .542-.84l-.389-.25zm1.943 1.249a.5.5 0 0 0-.541.841l.777.5a.5.5 0 1 0 .541-.841l-.777-.5zm2.332 1.5a.5.5 0 1 0-.541.84l.777.5a.5.5 0 0 0 .541-.84l-.777-.5zm2.332 1.5a.5.5 0 0 0-.749.272l-.607.003a.5.5 0 1 0 .005 1l.725-.003a.501.501 0 0 0 .626.068l.388-.25.654-.42-.654-.421-.388-.25zm-1.555 2.34a.5.5 0 1 0-.541-.842l-.777.5a.5.5 0 1 0 .541.841l.777-.5zm-2.332 1.5a.5.5 0 1 0-.541-.842l-.777.5a.5.5 0 0 0 .541.84l.777-.499zm-2.331 1.499a.5.5 0 1 0-.542-.842l-.388.25a.5.5 0 1 0 .541.842l.389-.25zm7.871-5.067a.5.5 0 1 0-.004 1l.993.006a.5.5 0 0 0 .007-1l-.996-.006zm-5.02 1.02a.5.5 0 1 0-.011-1l-.508.007-.509.007a.5.5 0 1 0 .015 1l.507-.007.506-.007zm8.035-.994a.5.5 0 0 0-.013 1l1.005.015a.499.499 0 1 0 .017-1l-1.009-.015zM373.735 5.67a.5.5 0 1 0-.02-1l-1.01.022a.5.5 0 1 0 .023 1l1.007-.022zm14.088-.989a.5.5 0 1 0-.022 1l.995.024a.5.5 0 0 0 .026-1l-.999-.024zm-17.101 1.062a.5.5 0 0 0-.029-1l-1.001.03a.5.5 0 1 0 .031 1l.999-.03zm20.105-.98a.5.5 0 1 0-.032 1c.337.01.673.022 1.009.034a.5.5 0 0 0 .035-1l-1.012-.034zm-23.124 1.078a.499.499 0 1 0-.036-1l-1.013.04a.501.501 0 0 0 .04.998l1.009-.038zm26.147-.966a.5.5 0 0 0-.041.999l.997.043a.499.499 0 1 0 .044-1l-1-.042zm-29.166 1.088a.5.5 0 1 0-.045-.999l-1.002.047a.5.5 0 0 0 .047.998l1-.046zm32.16-.95a.5.5 0 1 0-.051.999l1.01.053a.5.5 0 1 0 .054-.998c-.337-.019-.675-.036-1.013-.054zM361.676 6.11a.5.5 0 0 0-.053-.999l-1.014.055a.5.5 0 1 0 .056.998l1.011-.054zm38.195-.928a.5.5 0 1 0-.06.998c.333.02.665.041.997.063a.5.5 0 1 0 .064-.999l-1.001-.062zm-41.219 1.1a.5.5 0 1 0-.061-.999c-.335.02-.669.042-1.004.063a.5.5 0 0 0 .064.998l1.001-.063zm44.209-.904a.5.5 0 0 0-.07.997l1.005.072a.5.5 0 1 0 .073-.997c-.335-.025-.671-.049-1.008-.072zm-47.206 1.098a.5.5 0 0 0-.069-.998c-.339.024-.677.047-1.015.072a.5.5 0 1 0 .071.997l1.013-.071zm50.229-.872a.5.5 0 0 0-.079.997l.998.081a.5.5 0 1 0 .082-.996l-1.001-.082zm-53.256 1.093a.5.5 0 0 0-.077-.997l-1.005.078a.5.5 0 0 0 .08.997c.333-.026.667-.053 1.002-.078zm56.245-.84a.5.5 0 1 0-.088.996l.997.09a.5.5 0 0 0 .092-.995c-.333-.03-.666-.061-1.001-.09zm-59.24 1.082a.5.5 0 0 0-.085-.996l-1.009.087a.5.5 0 1 0 .088.996l1.006-.087zm62.255-.798a.5.5 0 1 0-.098.995l.996.1a.501.501 0 0 0 .102-.994c-.332-.034-.666-.068-1-.1zM346.611 7.21a.5.5 0 0 0-.092-.996l-1.005.095a.5.5 0 0 0 .095.995l1.002-.094zm68.263-.757a.499.499 0 1 0-.109.994l.993.11a.5.5 0 1 0 .111-.994l-.995-.11zM343.618 7.5a.5.5 0 0 0-.101-.995l-1.001.102a.5.5 0 0 0 .103.995l.999-.102zm74.263-.706a.5.5 0 1 0-.118.993l.995.12a.5.5 0 0 0 .121-.993l-.998-.12zm-77.277 1.023a.5.5 0 1 0-.109-.994l-1.003.111a.5.5 0 0 0 .111.994l1.001-.11zm80.255-.655a.5.5 0 0 0-.127.992l.992.13a.5.5 0 0 0 .13-.992l-.995-.13zm-83.246.994a.5.5 0 1 0-.116-.993l-.995.118a.5.5 0 0 0 .119.993l.992-.118zm-3.006.365a.5.5 0 1 0-.124-.992l-1.003.127a.5.5 0 1 0 .128.992l.999-.127zm89.254-.958a.5.5 0 0 0-.138.99l.992.14a.5.5 0 1 0 .141-.99c-.331-.048-.663-.094-.995-.14zm-92.24 1.345a.5.5 0 0 0-.132-.99l-.992.133a.5.5 0 0 0 .135.99l.989-.133zm95.207-.92a.5.5 0 0 0-.147.99c.333.05.664.099.995.15a.5.5 0 1 0 .15-.99l-.998-.15zm-98.206 1.333a.5.5 0 0 0-.14-.99c-.335.048-.668.095-1.001.144a.5.5 0 0 0 .143.99c.332-.049.664-.096.998-.144zm101.203-.872a.501.501 0 0 0-.157.987l.987.158a.5.5 0 0 0 .16-.987l-.99-.158zM325.644 9.756a.5.5 0 1 0-.149-.99l-.991.15a.5.5 0 0 0 .151.99l.989-.15zm107.134-.824a.5.5 0 0 0-.166.986l1 .17a.5.5 0 0 0 .17-.985c-.334-.058-.668-.115-1.004-.171zM322.65 10.217a.5.5 0 0 0-.157-.988l-.997.16a.5.5 0 1 0 .159.987l.995-.159zm113.119-.765a.5.5 0 1 0-.176.984l.98.177a.5.5 0 0 0 .18-.984c-.327-.06-.655-.118-.984-.177zm-116.087 1.246a.5.5 0 1 0-.164-.986l-.995.167a.5.5 0 1 0 .167.986l.992-.167zm119.039-.703a.5.5 0 1 0-.186.983l.994.19a.5.5 0 1 0 .189-.982l-.997-.19zm-122.029 1.213a.5.5 0 1 0-.172-.985l-.993.175a.5.5 0 1 0 .175.984l.99-.174zm124.998-.635a.5.5 0 0 0-.197.98l.972.196a.5.5 0 1 0 .199-.98 278.61 278.61 0 0 0-.974-.196zm-127.949 1.163a.5.5 0 0 0-.18-.984l-1.005.185a.5.5 0 1 0 .183.983l1.002-.184zm130.901-.558a.5.5 0 1 0-.206.979l.984.208a.5.5 0 0 0 .209-.977l-.987-.21zm-133.89 1.117a.5.5 0 0 0-.188-.982l-.986.19a.5.5 0 0 0 .19.981l.984-.19zm136.828-.483a.5.5 0 1 0-.216.976l.974.217a.5.5 0 0 0 .219-.975l-.977-.218zm-139.778 1.06a.5.5 0 0 0-.196-.981 293.4 293.4 0 0 0-.999.2.5.5 0 1 0 .198.98l.997-.2zm142.731-.391a.5.5 0 0 0-.226.974c.326.075.65.151.972.227a.5.5 0 1 0 .229-.973c-.323-.077-.648-.153-.975-.228zm-145.7.995a.5.5 0 0 0-.204-.979l-.977.205a.5.5 0 0 0 .206.978l.975-.204zm-2.952.627a.501.501 0 0 0-.212-.977l-.99.216a.5.5 0 1 0 .214.976l.988-.215zm151.571-.93a.5.5 0 0 0-.236.972c.33.08.658.16.984.241a.5.5 0 0 0 .24-.971l-.988-.242zm-154.511 1.58a.5.5 0 1 0-.219-.976l-.981.222a.5.5 0 0 0 .222.975l.978-.222zm157.446-.85a.5.5 0 1 0-.247.969l.956.244a.5.5 0 1 0 .249-.968 265.34 265.34 0 0 0-.958-.245zM295.985 15.43a.5.5 0 1 0-.228-.974l-.978.23a.5.5 0 0 0 .23.974c.324-.077.649-.154.976-.23zm163.325-.769a.5.5 0 0 0-.257.966l.967.259a.5.5 0 0 0 .26-.966l-.97-.259zm-166.248 1.465a.5.5 0 0 0-.236-.971l-.992.242a.5.5 0 1 0 .239.971l.989-.242zm169.141-.68a.5.5 0 1 0-.266.964c.328.09.654.181.978.272a.5.5 0 1 0 .27-.962 150.18 150.18 0 0 0-.982-.274zm-172.079 1.407a.5.5 0 1 0-.244-.97c-.322.08-.643.162-.961.243a.5.5 0 1 0 .246.97c.318-.082.638-.163.959-.243zm174.989-.584a.5.5 0 1 0-.277.96l.947.276a.5.5 0 1 0 .281-.96 292.77 292.77 0 0 0-.951-.276zm-177.921 1.335a.5.5 0 1 0-.252-.968l-.974.255a.5.5 0 0 0 .256.967c.321-.085.645-.17.97-.254zm180.822-.48a.5.5 0 0 0-.288.958l.951.289a.5.5 0 0 0 .292-.957l-.955-.29zm-183.726 1.25a.5.5 0 1 0-.261-.965c-.331.09-.659.178-.986.268a.501.501 0 0 0 .263.964l.984-.267zm186.603-.365a.5.5 0 0 0-.299.954l.96.303a.5.5 0 0 0 .303-.953l-.964-.304zm-189.516 1.165a.5.5 0 0 0-.269-.963c-.324.09-.646.181-.966.272a.5.5 0 1 0 .272.962l.963-.27zm192.373-.25a.5.5 0 0 0-.311.95l.969.318a.5.5 0 1 0 .315-.95l-.973-.319zm-195.289 1.079a.501.501 0 0 0-.278-.96c-.321.092-.64.185-.957.278a.5.5 0 0 0 .28.96l.955-.278zm198.155-.125a.5.5 0 1 0-.322.946l.952.326a.5.5 0 1 0 .325-.945c-.315-.109-.634-.218-.955-.327zm-201.05.976a.5.5 0 0 0-.287-.958l-.967.29a.5.5 0 0 0 .29.958l.964-.29zm-2.878.875a.5.5 0 0 0-.296-.955l-.976.304a.5.5 0 0 0 .299.954l.973-.303zm206.786-.86a.5.5 0 0 0-.334.942l.93.331a.5.5 0 1 0 .337-.94c-.307-.111-.619-.222-.933-.333zM269.82 22.632a.5.5 0 1 0-.305-.953l-.984.317a.5.5 0 1 0 .308.951c.323-.104.65-.21.981-.315zm212.492-.737a.5.5 0 1 0-.345.939c.309.113.614.227.915.34a.5.5 0 0 0 .35-.938c-.302-.113-.609-.226-.92-.34zm-215.367 1.672a.501.501 0 0 0-.314-.95c-.329.11-.653.217-.973.325a.5.5 0 1 0 .317.948l.97-.323zm218.191-.61a.5.5 0 0 0-.359.934c.31.118.614.236.914.353a.5.5 0 1 0 .363-.932c-.301-.117-.607-.236-.918-.355zm-221.053 1.574a.5.5 0 0 0-.324-.946l-.969.334a.5.5 0 1 0 .328.945l.965-.333zm223.857-.474a.5.5 0 0 0-.373.928c.315.126.624.25.926.374a.5.5 0 0 0 .377-.927c-.304-.123-.614-.249-.93-.375zm-226.699 1.465a.5.5 0 0 0-.335-.942l-.977.35a.5.5 0 0 0 .338.94l.974-.348zm229.471-.33a.5.5 0 0 0-.386.923c.326.136.643.27.951.401a.5.5 0 0 0 .392-.92c-.31-.132-.629-.266-.957-.404zm-232.325 1.364a.5.5 0 1 0-.346-.938c-.328.12-.647.24-.957.355a.5.5 0 1 0 .35.937c.309-.116.627-.234.953-.354zm235.129-.16a.5.5 0 1 0-.403.915c.308.135.604.267.888.394a.499.499 0 1 0 .409-.913c-.286-.128-.584-.26-.894-.396zm-237.964 1.228a.5.5 0 1 0-.359-.933l-.922.357a.5.5 0 0 0 .363.932c.294-.115.6-.234.918-.356zm240.708.013a.5.5 0 1 0-.422.906c.319.15.614.288.885.417a.5.5 0 1 0 .43-.903c-.274-.13-.571-.27-.893-.42zm-243.512 1.092a.5.5 0 0 0-.374-.927c-.329.132-.634.257-.913.372a.499.499 0 1 0 .38.925c.278-.115.58-.238.907-.37zm245.777.74l-.343.15.207.455a.5.5 0 1 1-.413-.91l.002-.001.005-.003.022-.01.082-.036.325-.143a.497.497 0 0 1 .186-.04.497.497 0 0 1 .39.026l.318.163.082.043.02.01.006.004h.002a.5.5 0 0 1-.469.884l-.126-.177a43.097 43.097 0 0 0-.328.144l-.08.035-.019.01.297-.37-.166-.234zM621.681.23a.502.502 0 0 1 .692-.15l.388.25a.5.5 0 1 1-.541.841l-.388-.25a.5.5 0 0 1-.151-.69zm1.944 1.25a.5.5 0 0 1 .691-.15l.777.5a.5.5 0 0 1-.541.841l-.777-.5a.5.5 0 0 1-.15-.69zm2.332 1.5a.5.5 0 0 1 .691-.15l.777.5a.5.5 0 0 1-.541.84l-.777-.5a.5.5 0 0 1-.15-.69zm2.331 1.5a.5.5 0 0 1 .692-.15l.388.249.654.42-.654.421-.388.25a.501.501 0 0 1-.626-.068l-.724.003a.5.5 0 0 1-.006-1l.607-.003a.501.501 0 0 1 .057-.123zm-.713 1.499a.5.5 0 0 1-.15.69l-.777.5a.5.5 0 1 1-.541-.84l.777-.5a.5.5 0 0 1 .691.15zm-2.332 1.5a.5.5 0 0 1-.15.69l-.777.5a.5.5 0 1 1-.541-.841l.777-.5a.5.5 0 0 1 .691.15zm-2.332 1.499a.5.5 0 0 1-.15.69l-.388.25a.501.501 0 0 1-.541-.84l.388-.25a.5.5 0 0 1 .691.15zm7.22-3.877a.5.5 0 0 1 .502-.499l.996.006a.5.5 0 0 1-.007 1c-.33-.003-.661-.004-.993-.006a.5.5 0 0 1-.498-.501zm-4.023.015a.5.5 0 0 1-.494.506l-.507.007-.507.007a.5.5 0 0 1-.015-1l.509-.007.508-.007a.5.5 0 0 1 .506.494zm7.033.006a.5.5 0 0 1 .507-.494l1.009.015a.5.5 0 0 1-.016 1l-1.006-.015a.501.501 0 0 1-.494-.506zm-10.075.04a.5.5 0 0 1-.489.51l-1.008.02a.5.5 0 1 1-.023-.999l1.01-.022a.499.499 0 0 1 .51.49zm13.088.009a.5.5 0 0 1 .511-.489l.998.025a.5.5 0 1 1-.026 1c-.331-.01-.663-.017-.995-.025a.499.499 0 0 1-.488-.511zm-16.105.06a.5.5 0 0 1-.486.513l-.998.03a.5.5 0 1 1-.031-1l1.001-.03a.5.5 0 0 1 .514.486zm19.104.017a.5.5 0 0 1 .516-.484l1.011.034a.5.5 0 1 1-.035 1l-1.008-.034a.5.5 0 0 1-.484-.516zm-22.127.076a.5.5 0 0 1-.482.518l-1.009.038a.5.5 0 1 1-.039-.999l1.012-.038a.5.5 0 0 1 .518.481zm25.145.03a.5.5 0 0 1 .521-.478l1 .043a.5.5 0 0 1-.045.999c-.332-.015-.664-.03-.997-.043a.5.5 0 0 1-.479-.52zm-28.168.089a.5.5 0 0 1-.478.521l-1 .046a.5.5 0 1 1-.047-.998l1.003-.047a.501.501 0 0 1 .522.478zm31.157.045a.5.5 0 0 1 .525-.474c.338.018.676.035 1.013.054a.499.499 0 1 1-.054.998l-1.01-.053a.5.5 0 0 1-.474-.525zm-34.17.097a.5.5 0 0 1-.473.526l-1.011.054a.5.5 0 1 1-.055-.998l1.013-.055a.5.5 0 0 1 .526.473zm37.193.067a.5.5 0 0 1 .529-.469l1.001.062a.5.5 0 1 1-.063.998l-.998-.062a.5.5 0 0 1-.469-.529zm-40.221.101a.5.5 0 0 1-.469.53l-1.001.062a.5.5 0 0 1-.063-.998l1.004-.063a.5.5 0 0 1 .529.469zm43.207.09a.5.5 0 0 1 .533-.464c.337.023.673.047 1.009.072a.5.5 0 1 1-.074.997l-1.004-.072a.5.5 0 0 1-.464-.534zm-46.208.1a.5.5 0 0 1-.465.534l-1.013.071a.5.5 0 0 1-.071-.997c.338-.025.676-.048 1.015-.072a.501.501 0 0 1 .534.465zm49.226.12a.5.5 0 0 1 .539-.458l1 .082a.5.5 0 1 1-.082.996l-.998-.08a.5.5 0 0 1-.459-.54zm-52.258.098a.5.5 0 0 1-.46.537c-.335.025-.669.052-1.002.078a.5.5 0 1 1-.079-.997l1.004-.078a.5.5 0 0 1 .537.46zm55.243.15a.5.5 0 0 1 .543-.453l1 .091a.5.5 0 0 1-.092.996c-.332-.03-.664-.061-.997-.09a.5.5 0 0 1-.454-.543zM598.93 6.4a.5.5 0 0 1-.456.54l-1.006.087a.5.5 0 1 1-.087-.996c.335-.03.672-.058 1.009-.087a.5.5 0 0 1 .54.456zm61.253.19a.5.5 0 0 1 .547-.448l1 .101a.5.5 0 0 1-.102.995c-.332-.034-.664-.068-.997-.1a.5.5 0 0 1-.448-.547zm-64.279.075a.5.5 0 0 1-.451.545c-.335.03-.669.062-1.002.094a.5.5 0 0 1-.096-.995l1.005-.095a.5.5 0 0 1 .544.451zm67.26.23a.5.5 0 0 1 .551-.442l.996.11a.5.5 0 1 1-.112.994l-.992-.11a.5.5 0 0 1-.443-.551zm-70.258.058a.5.5 0 0 1-.447.548l-.998.102a.5.5 0 1 1-.104-.995l1.001-.102a.5.5 0 0 1 .548.447zm73.261.28a.5.5 0 0 1 .555-.438l.998.12a.5.5 0 1 1-.121.993l-.994-.12a.5.5 0 0 1-.438-.555zm-76.279.034a.5.5 0 0 1-.443.551l-1.001.11a.5.5 0 1 1-.111-.993l1.004-.111a.5.5 0 0 1 .551.443zm79.253.328a.5.5 0 0 1 .56-.432l.995.13a.5.5 0 1 1-.131.991l-.992-.129a.5.5 0 0 1-.432-.56zm-82.248.007a.5.5 0 0 1-.438.555l-.993.118a.5.5 0 1 1-.119-.993l.995-.118a.5.5 0 0 1 .555.438zm-3.011.362a.499.499 0 0 1-.433.558l-1 .127a.5.5 0 0 1-.128-.992l1.003-.127a.5.5 0 0 1 .558.434zm88.256.027a.5.5 0 0 1 .564-.427c.332.046.664.092.995.14a.5.5 0 0 1-.141.99l-.991-.14a.5.5 0 0 1-.427-.563zm-91.246.356a.5.5 0 0 1-.429.562l-.989.134a.5.5 0 1 1-.135-.991l.991-.134a.5.5 0 0 1 .562.43zm94.209.064a.5.5 0 0 1 .568-.421l.998.15a.5.5 0 0 1-.15.988l-.994-.15a.5.5 0 0 1-.422-.567zm-97.213.346a.5.5 0 0 1-.425.565l-.998.143a.5.5 0 0 1-.143-.99l1.001-.143a.5.5 0 0 1 .565.425zm100.206.108a.5.5 0 0 1 .572-.415l.99.158a.5.5 0 1 1-.16.987l-.987-.158a.499.499 0 0 1-.415-.572zm-103.189.323a.5.5 0 0 1-.42.569l-.989.15a.5.5 0 0 1-.151-.99l.992-.15a.499.499 0 0 1 .568.421zm106.139.155a.499.499 0 0 1 .576-.41c.335.056.67.113 1.003.171a.5.5 0 1 1-.17.985l-1-.17a.5.5 0 0 1-.409-.576zm-109.137.303a.5.5 0 0 1-.416.572l-.995.159a.5.5 0 0 1-.159-.988l.998-.159a.5.5 0 0 1 .572.416zm112.123.21a.5.5 0 0 1 .58-.403l.984.177a.5.5 0 0 1-.18.984c-.325-.06-.652-.118-.98-.177a.5.5 0 0 1-.404-.58zm-115.095.268a.5.5 0 0 1-.411.575l-.993.167a.501.501 0 0 1-.167-.986l.996-.167a.5.5 0 0 1 .575.411zm118.043.27a.5.5 0 0 1 .585-.398l.996.19a.5.5 0 1 1-.189.983l-.993-.19a.5.5 0 0 1-.399-.584zm-121.038.237a.5.5 0 0 1-.407.578l-.99.174a.5.5 0 0 1-.174-.984l.992-.175a.5.5 0 0 1 .579.407zm124.002.335a.501.501 0 0 1 .589-.392l.975.196a.5.5 0 0 1-.2.98l-.971-.196a.5.5 0 0 1-.393-.588zm-126.958.189a.501.501 0 0 1-.402.582c-.335.06-.669.123-1.002.184a.5.5 0 1 1-.183-.983l1.005-.185a.5.5 0 0 1 .582.402zm129.907.41a.5.5 0 0 1 .592-.386l.988.21a.5.5 0 1 1-.21.977c-.326-.07-.654-.139-.984-.208a.5.5 0 0 1-.386-.593zm-132.901.146a.5.5 0 0 1-.397.585l-.983.19a.5.5 0 1 1-.191-.983l.986-.19a.499.499 0 0 1 .585.398zm135.835.482a.5.5 0 0 1 .596-.38l.977.218a.5.5 0 1 1-.219.975l-.973-.217a.5.5 0 0 1-.381-.596zm-138.79.091a.5.5 0 0 1-.392.588l-.997.2a.5.5 0 0 1-.198-.98l.999-.2a.5.5 0 0 1 .588.392zm141.74.572a.5.5 0 0 1 .6-.374c.326.075.651.151.975.228a.5.5 0 0 1-.23.973l-.971-.227a.5.5 0 0 1-.374-.6zm-144.713.03a.5.5 0 0 1-.388.591l-.975.204a.5.5 0 1 1-.206-.978l.978-.205a.5.5 0 0 1 .591.388zm-2.957.624a.5.5 0 0 1-.383.594l-.988.215a.5.5 0 0 1-.214-.976l.99-.216a.5.5 0 0 1 .595.383zm150.585.032a.499.499 0 0 1 .603-.368c.331.08.66.161.988.242a.5.5 0 0 1-.239.971l-.985-.24a.499.499 0 0 1-.367-.605zm-153.53.614a.5.5 0 0 1-.377.597l-.979.222a.5.5 0 1 1-.222-.975l.981-.222a.5.5 0 0 1 .597.378zm156.46.11a.5.5 0 0 1 .608-.362l.959.245a.5.5 0 0 1-.25.968l-.955-.244a.5.5 0 0 1-.362-.608zm-159.421.565a.5.5 0 0 1-.373.601l-.975.23a.5.5 0 0 1-.231-.974l.979-.23a.5.5 0 0 1 .6.373zm162.341.187a.499.499 0 0 1 .611-.355c.325.086.649.173.97.26a.5.5 0 1 1-.26.965l-.966-.259a.5.5 0 0 1-.355-.611zm-165.269.507a.5.5 0 0 1-.368.603l-.989.242a.5.5 0 0 1-.239-.971l.992-.242a.5.5 0 0 1 .604.368zm168.159.271a.5.5 0 0 1 .615-.348c.329.091.656.182.982.274a.5.5 0 1 1-.271.962c-.324-.09-.65-.182-.978-.272a.5.5 0 0 1-.348-.616zm-171.102.452a.5.5 0 0 1-.362.607c-.322.08-.641.161-.96.242a.5.5 0 0 1-.246-.969l.962-.243a.5.5 0 0 1 .606.363zm174.008.365a.5.5 0 0 1 .619-.342c.318.092.635.184.95.277a.501.501 0 0 1-.281.96l-.947-.276a.5.5 0 0 1-.341-.62zm-176.945.383a.5.5 0 0 1-.357.61c-.326.084-.649.17-.971.254a.5.5 0 1 1-.255-.967l.973-.255a.5.5 0 0 1 .61.358zm179.841.465a.5.5 0 0 1 .623-.334c.321.096.639.193.955.29a.5.5 0 1 1-.292.956l-.951-.289a.5.5 0 0 1-.335-.623zm-182.75.302a.5.5 0 0 1-.353.613l-.983.267a.5.5 0 1 1-.264-.964c.327-.09.656-.179.987-.268a.5.5 0 0 1 .613.352zm185.624.575a.5.5 0 0 1 .626-.327l.964.304a.5.5 0 1 1-.303.953l-.96-.303a.499.499 0 0 1-.327-.627zm-188.543.222a.5.5 0 0 1-.347.616c-.323.09-.644.18-.963.271a.5.5 0 1 1-.272-.962l.966-.272a.5.5 0 0 1 .616.347zm191.396.685a.499.499 0 0 1 .63-.32c.327.107.652.213.973.32a.5.5 0 0 1-.314.95c-.32-.107-.643-.213-.969-.32a.5.5 0 0 1-.32-.63zm-194.317.14a.5.5 0 0 1-.342.62l-.954.278a.501.501 0 0 1-.281-.96l.958-.279a.5.5 0 0 1 .619.342zm197.179.807a.5.5 0 0 1 .634-.312c.322.109.64.218.956.327a.5.5 0 1 1-.326.945l-.952-.326a.5.5 0 0 1-.312-.634zm-200.08.042a.5.5 0 0 1-.336.622l-.964.29a.5.5 0 1 1-.289-.957c.319-.097.642-.194.967-.29a.5.5 0 0 1 .622.335zm-2.884.872a.5.5 0 0 1-.33.625l-.973.303a.5.5 0 1 1-.299-.954l.977-.304a.5.5 0 0 1 .625.33zm205.818.07a.5.5 0 0 1 .638-.305l.934.332a.5.5 0 0 1-.338.941c-.306-.11-.616-.22-.929-.33a.5.5 0 0 1-.305-.639zm-208.69.828a.5.5 0 0 1-.324.629c-.331.105-.658.21-.981.315a.5.5 0 1 1-.307-.951l.984-.317a.5.5 0 0 1 .628.324zm211.527.188a.5.5 0 0 1 .642-.296l.92.341a.5.5 0 0 1-.35.937l-.916-.34a.5.5 0 0 1-.296-.641zm-214.408.744a.5.5 0 0 1-.318.632l-.97.323a.499.499 0 1 1-.317-.948c.32-.108.644-.216.973-.324a.5.5 0 0 1 .632.317zm217.227.31a.5.5 0 0 1 .646-.288l.918.355a.5.5 0 1 1-.362.932c-.3-.117-.605-.234-.914-.353a.5.5 0 0 1-.288-.646zm-220.096.65a.5.5 0 0 1-.311.636l-.965.333a.5.5 0 1 1-.328-.945l.969-.334a.5.5 0 0 1 .635.31zm222.896.44a.5.5 0 0 1 .65-.278c.316.126.626.252.93.375a.5.5 0 0 1-.376.927c-.303-.123-.611-.248-.926-.374a.499.499 0 0 1-.278-.65zm-225.745.549a.5.5 0 0 1-.303.638c-.332.118-.657.234-.975.349a.499.499 0 1 1-.338-.941c.319-.115.645-.232.978-.35a.5.5 0 0 1 .638.304zm228.513.576a.5.5 0 0 1 .655-.268l.956.404a.5.5 0 0 1-.392.92c-.308-.13-.625-.265-.951-.401a.5.5 0 0 1-.268-.655zm-231.374.453a.5.5 0 0 1-.296.643c-.327.12-.644.238-.954.354a.5.5 0 1 1-.35-.937l.957-.355a.501.501 0 0 1 .643.295zm234.173.739a.5.5 0 0 1 .659-.256c.31.136.608.268.894.396a.5.5 0 1 1-.409.913c-.284-.127-.58-.259-.887-.394a.5.5 0 0 1-.257-.659zm-237.017.326a.5.5 0 0 1-.287.646c-.318.122-.625.241-.918.356a.5.5 0 0 1-.364-.932l.922-.357a.5.5 0 0 1 .647.287zm239.756.901a.5.5 0 0 1 .664-.242c.322.15.62.29.893.42a.501.501 0 0 1-.43.903c-.271-.129-.566-.268-.885-.417a.5.5 0 0 1-.242-.664zm-242.571.199a.5.5 0 0 1-.276.65l-.908.37a.5.5 0 1 1-.38-.924c.28-.115.584-.24.913-.372a.5.5 0 0 1 .651.276zm245.292 1.098a.5.5 0 0 1 .672-.219l.318.163.081.043.021.01.005.004h.002a.5.5 0 1 1-.469.884l-.63-.885z" clip-rule="evenodd" fill-rule="evenodd" id="l"/></defs><title>background</title><path fill="none" d="M-1-1h582v402H-1z"/><title>Layer 1</title><g clip-path="url(#c)" fill="none"><path fill="#fff" d="M-483.552-814.637H878.027v2464.188H-483.552z"/><g transform="translate(-35.337 -56.655) scale(.99603)" stroke-width="2" mask="url(#d)"><use stroke="#FF680D" xlink:href="#e"/></g><g transform="translate(212.517 -56.655) scale(.99603)" stroke-width="2" mask="url(#f)"><use stroke="#FF680D" xlink:href="#g"/></g><g transform="translate(460.372 -56.655) scale(.99603)" stroke-width="2" mask="url(#h)"><use stroke="#FF680D" xlink:href="#i"/></g><g transform="translate(709.697 -56.655) scale(.99603)" stroke-width="2" mask="url(#j)"><use stroke="#FF680D" xlink:href="#k"/></g><use fill="#FF680D" xlink:href="#l" transform="scale(.99603)"/></g></svg>