<svg width="67" height="86" viewBox="0 0 67 86" xmlns="http://www.w3.org/2000/svg" xmlns:xlink="http://www.w3.org/1999/xlink"><g data-name="Canvas"><g data-name="Group" fill="none"><g mask="url(#a)" stroke-width="2" transform="scale(.98592)" data-name="Ellipse"><use xlink:href="#b" stroke="#FF680D"/></g><use xlink:href="#c" fill="#FF680D" transform="translate(25.618 20.698) scale(.98592)" data-name="3"/></g></g><defs><path id="d" d="M67.957 33.988c0 18.771-31.73 52.982-31.98 52.982S0 52.76 0 33.988C0 15.217 15.213 0 33.978 0c18.766 0 33.979 15.217 33.979 33.988z"/><path id="b" d="M67.957 33.988c0 18.771-31.73 52.982-31.98 52.982S0 52.76 0 33.988C0 15.217 15.213 0 33.978 0c18.766 0 33.979 15.217 33.979 33.988z"/><mask id="a" fill="#fff"><use xlink:href="#d"/></mask><path id="c" d="M5.815 14.12h2.174c1.722 0 2.584-.844 2.584-2.53 0-.656-.205-1.19-.616-1.6-.41-.419-.988-.629-1.736-.629-.61 0-1.144.178-1.6.534-.446.355-.67.797-.67 1.326H1.345c0-1.049.292-1.983.875-2.803.584-.82 1.39-1.458 2.42-1.914 1.04-.465 2.178-.697 3.418-.697 2.215 0 3.956.505 5.223 1.517s1.9 2.402 1.9 4.17c0 .857-.264 1.668-.793 2.434-.52.756-1.28 1.371-2.283 1.845 1.057.383 1.887.967 2.488 1.75.602.775.903 1.737.903 2.885 0 1.777-.684 3.2-2.051 4.266-1.367 1.066-3.163 1.6-5.387 1.6-1.303 0-2.516-.247-3.637-.739-1.112-.501-1.955-1.19-2.529-2.064-.574-.884-.861-1.887-.861-3.008h4.635c0 .61.246 1.14.738 1.586.492.446 1.098.67 1.818.67.811 0 1.458-.224 1.941-.67.484-.456.725-1.035.725-1.736 0-1.003-.25-1.714-.752-2.133-.501-.42-1.194-.63-2.078-.63H5.815v-3.43z"/></defs></svg>