<svg width="67" height="86" viewBox="0 0 67 86" xmlns="http://www.w3.org/2000/svg" xmlns:xlink="http://www.w3.org/1999/xlink"><g data-name="Canvas"><g data-name="Group" fill="none"><g mask="url(#a)" stroke-width="2" transform="scale(.98592)" data-name="Ellipse"><use xlink:href="#b" stroke="#FF680D"/></g><use xlink:href="#c" fill="#FF680D" transform="translate(25.618 20.698) scale(.98592)" data-name="1"/></g></g><defs><path id="d" d="M67.957 33.988c0 18.771-31.73 52.982-31.98 52.982S0 52.76 0 33.988C0 15.217 15.213 0 33.978 0c18.766 0 33.979 15.217 33.979 33.988z"/><path id="b" d="M67.957 33.988c0 18.771-31.73 52.982-31.98 52.982S0 52.76 0 33.988C0 15.217 15.213 0 33.978 0c18.766 0 33.979 15.217 33.979 33.988z"/><mask id="a" fill="#fff"><use xlink:href="#d"/></mask><path id="c" d="M11.817 26H7.196V11.29l-4.54 1.325v-3.5l8.737-3.021h.424V26z"/></defs></svg>