<svg width="68" height="87" viewBox="0 0 68 87" xmlns="http://www.w3.org/2000/svg" xmlns:xlink="http://www.w3.org/1999/xlink"><g data-name="Canvas"><g data-name="4" fill="none"><g mask="url(#a)" stroke-width="2" data-name="Ellipse"><use xlink:href="#b" stroke="#FF680D"/></g><use xlink:href="#c" fill="#FF680D" transform="translate(26 21)" data-name="4"/></g></g><defs><path id="d" d="M68 34c0 18.778-31.75 53-32 53S0 52.778 0 34 15.222 0 34 0s34 15.222 34 34z"/><path id="b" d="M68 34c0 18.778-31.75 53-32 53S0 52.778 0 34 15.222 0 34 0s34 15.222 34 34z"/><mask id="a" fill="#fff"><use xlink:href="#d"/></mask><path id="c" d="M13.777 18.22h2.024v3.555h-2.024V26H9.17v-4.225H1.473l-.274-2.816L9.17 6.135v-.041h4.608V18.22zm-8.19 0H9.17v-6.124l-.287.464-3.295 5.66z"/></defs></svg>