<svg xmlns="http://www.w3.org/2000/svg" width="10" height="14" viewBox="0 0 10 14"><g fill="#FDD202" data-name="placeholder"><path d="M5 0c2.757 0 5 2.208 5 4.922 0 .917-.258 1.812-.746 2.588l-3.97 6.296a.418.418 0 0 1-.353.194h-.004a.418.418 0 0 1-.354-.2L.705 7.445A4.858 4.858 0 0 1 0 4.922C0 2.208 2.243 0 5 0zM1.42 7.022l3.517 5.78 3.608-5.724a4.05 4.05 0 0 0 .627-2.156C9.172 2.66 7.297.815 5 .815 2.702.815.83 2.66.83 4.922c0 .741.206 1.468.59 2.1z" data-name="Vector"/><path d="M5 2.46c1.379 0 2.5 1.105 2.5 2.462 0 1.348-1.103 2.46-2.5 2.46a2.476 2.476 0 0 1-2.5-2.46C2.5 3.565 3.622 2.46 5 2.46zm0 4.108c.924 0 1.672-.74 1.672-1.646 0-.905-.753-1.646-1.672-1.646-.919 0-1.67.741-1.67 1.646 0 .894.732 1.646 1.67 1.646z" data-name="Vector"/></g></svg>