<svg width="30" height="30" viewBox="0 0 30 30" xmlns="http://www.w3.org/2000/svg" xmlns:xlink="http://www.w3.org/1999/xlink"><title>perehod</title><desc>Created using Figma</desc><g transform="translate(7352 1550)"><mask id="b"><use xlink:href="#a" fill="#fff" transform="translate(-7352 -1550)"/></mask><g mask="url(#b)"><use xlink:href="#c" transform="translate(-7352 -1550)" fill="#0461E3"/></g></g><use xlink:href="#d" transform="translate(8.82 8.82)" fill="#0461E3"/><defs><path id="a" d="M30 15c0 8.284-6.716 15-15 15-8.284 0-15-6.716-15-15C0 6.716 6.716 0 15 0c8.284 0 15 6.716 15 15z"/><path id="c" d="M29 15c0 7.732-6.268 14-14 14v2c8.837 0 16-7.163 16-16h-2zM15 29C7.268 29 1 22.732 1 15h-2c0 8.837 7.163 16 16 16v-2zM1 15C1 7.268 7.268 1 15 1v-2C6.163-1-1 6.163-1 15h2zM15 1c7.732 0 14 6.268 14 14h2c0-8.837-7.163-16-16-16v2z"/><path id="d" fill-rule="evenodd" d="M6.176 0l-1.08 1.08 4.323 4.324H0V6.95h9.42l-4.324 4.323 1.08 1.08 6.177-6.176L6.176 0z"/></defs></svg>