<svg xmlns="http://www.w3.org/2000/svg" width="28" height="29" viewBox="0 0 28 29"><path fill="url(#a)" fill-rule="evenodd" d="M8.361 0h12.11c4.613 0 8.36 3.77 8.36 8.41v12.18c0 4.645-3.743 8.41-8.36 8.41H8.36C3.748 29 0 25.23 0 20.59V8.41C0 3.765 3.743 0 8.361 0zm-.288 2.9c-2.866 0-5.19 2.337-5.19 5.22v12.76c0 2.885 2.321 5.22 5.19 5.22h12.686c2.866 0 5.19-2.337 5.19-5.22V8.12c0-2.886-2.322-5.22-5.19-5.22H8.073zm15.713 3.987a1.807 1.807 0 0 0-1.802-1.812c-.995 0-1.802.811-1.802 1.812S20.99 8.7 21.984 8.7s1.802-.812 1.802-1.813zm-9.37.363c3.98 0 7.207 3.246 7.207 7.25s-3.227 7.25-7.207 7.25-7.208-3.246-7.208-7.25 3.227-7.25 7.208-7.25zm-4.325 7.25c0-2.403 1.936-4.35 4.325-4.35 2.389 0 4.325 1.947 4.325 4.35 0 2.402-1.936 4.35-4.325 4.35-2.389 0-4.325-1.948-4.325-4.35z" clip-rule="evenodd" data-name="Shape Copy 6" transform="scale(.97116)"/><defs><linearGradient id="a" x2="1" gradientTransform="matrix(0 29 -28.8315 0 28.831 0)" gradientUnits="userSpaceOnUse"><stop stop-color="#FF005C"/><stop offset="1" stop-color="#FF005C" stop-opacity=".78"/></linearGradient></defs></svg>