<svg xmlns="http://www.w3.org/2000/svg" width="20" height="21" viewBox="0 0 20 21"><path fill="#0450E3" fill-rule="evenodd" d="M2 6.5L2.5 0l2.094 2.094A9.851 9.851 0 0 1 10 .5c5.5 0 10 4.5 10 10 0 .8-.113 1.605-.313 2.406L18 11.187V10.5c0-4.398-3.602-8-8-8a8.107 8.107 0 0 0-3.969 1.031L8.5 6 2 6.5zm-2 4c0-.8.113-1.605.313-2.406L2 9.813v.687c0 4.398 3.602 8 8 8a8.097 8.097 0 0 0 3.969-1.031L11.5 15l6.5-.5-.5 6.5-2.125-2.125c-1.547 1-3.383 1.625-5.375 1.625-5.5 0-10-4.5-10-10z" clip-rule="evenodd" data-name="Shape"/></svg>