<svg xmlns="http://www.w3.org/2000/svg" width="45" height="45" viewBox="0 0 45 45"><path fill="#fff" d="M13.568 0c.226 0 .226 0 .452.23s.905.918.905 1.377c0 .46 0 1.607.226 2.526.452 1.148.904 4.132 1.583 5.74.678 1.607.904 2.525.226 3.443-.679 1.148-4.975 5.51-4.975 5.51s1.13 2.296 2.487 3.674c1.131 1.607 2.94 3.903 5.201 5.74 2.262 2.066 4.75 3.903 7.237 5.05 2.487-2.525 4.522-4.591 5.2-5.05.679-.46.679-.689 1.81-.23 1.13.46 2.713 1.148 4.522 1.378 1.583.23 3.392.459 4.523.688 1.13.23 1.13.23 1.357.69.452.459.678 1.147.678 1.377v9.414c0 .688 0 .688-.226 1.147-.226.46-.452 1.607-.452 1.607 0 .23-1.131.689-1.81.689-.678 0-3.165 0-4.748-.23-1.583-.23-5.88-1.148-7.463-1.836-1.582-.46-6.783-2.296-13.115-7.118-5.88-4.592-10.176-10.79-12.663-15.842C2.035 14.924.678 9.414.453 6.658 0 3.903 0 2.755 0 2.066.226 1.378.905.69 1.357.46 1.809.23 2.487 0 3.166 0h10.402z" data-name="Vector"/></svg>