<svg width="16" height="31" viewBox="0 0 16 31" xmlns="http://www.w3.org/2000/svg" xmlns:xlink="http://www.w3.org/1999/xlink"><title>path410</title><desc>Created using Figma</desc><use xlink:href="#a" transform="scale(.125 -.125) rotate(48.48 342.005 -59.535)" fill="#3C3C3D"/><defs><path id="a" d="M203.675 164.526c1.914-1.914 2.2-11.009-10.412-31.726-11.316-18.594-29.246-40.531-50.489-61.769C121.537 49.788 99.6 31.858 81.011 20.543 60.29 7.936 51.2 8.222 49.285 10.136L19.6 39.826l.71.163.801.189c.663.158 1.337.342 2.021.546l.597.168a56.7 56.7 0 0 1 2.7.893l.633.23c.73.27 1.47.556 2.215.852l.909.378c.72.301 1.46.623 2.2.955l.78.352c.99.454 2.001.934 3.027 1.45l.5.255c.868.433 1.746.888 2.629 1.362l.985.541c.78.424 1.567.858 2.353 1.302l.94.536a156.62 156.62 0 0 1 3.276 1.944l.178.108c1.057.638 2.119 1.301 3.18 1.985l1.026.653a181.99 181.99 0 0 1 2.491 1.634l1.056.699c1.031.694 2.067 1.404 3.114 2.128l.362.25a253.03 253.03 0 0 1 3.517 2.496l1.01.735c.868.633 1.74 1.276 2.619 1.924l1.138.853c.97.725 1.94 1.47 2.914 2.215l.7.54c1.199.925 2.398 1.869 3.608 2.828l.96.771c.908.725 1.822 1.465 2.73 2.205l1.174.97a356.03 356.03 0 0 1 2.807 2.327l.888.745a284.57 284.57 0 0 1 3.655 3.124l.776.669c.97.842 1.94 1.69 2.904 2.546l1.179 1.047c.898.801 1.791 1.602 2.684 2.409l1.031.94a362.5 362.5 0 0 1 3.62 3.327l.525.495c1.041.97 2.077 1.945 3.103 2.925l1.128 1.076c.873.832 1.736 1.675 2.603 2.512l1.077 1.051a585.457 585.457 0 0 1 3.547 3.501 530.878 530.878 0 0 1 3.496 3.543l1.052 1.076c.842.868 1.679 1.736 2.511 2.609l1.077 1.122c.985 1.031 1.955 2.068 2.93 3.104l.49.525a589.591 589.591 0 0 1 3.333 3.619l.934 1.036c.806.888 1.612 1.781 2.409 2.68l1.046 1.179a341.8 341.8 0 0 1 2.547 2.909l.674.771a392.903 392.903 0 0 1 3.118 3.654l.75.898c.786.929 1.557 1.863 2.328 2.797l.965 1.179c.745.909 1.474 1.812 2.204 2.726l.776.965c.96 1.204 1.899 2.404 2.828 3.603l.546.71c.745.974 1.48 1.939 2.205 2.904l.857 1.143c.648.873 1.287 1.74 1.919 2.608l.74 1.021a367.96 367.96 0 0 1 2.496 3.511l.261.383a200.518 200.518 0 0 1 2.108 3.093l.709 1.062a190.69 190.69 0 0 1 1.628 2.486l.659 1.031a206.723 206.723 0 0 1 1.97 3.149l.127.209c.664 1.102 1.307 2.19 1.93 3.272l.546.944c.444.791.878 1.572 1.301 2.343l.536 1c.47.873.924 1.745 1.363 2.608l.265.521c.506 1.02.985 2.021 1.445 3.021l.347.781c.337.74.653 1.475.959 2.2l.373.908c.301.746.582 1.481.847 2.205l.24.638c.327.924.628 1.817.893 2.705l.169.587c.199.689.383 1.368.546 2.032l.184.791.173.72 29.685-29.685zM20.545 81.009c11.315 18.594 29.245 40.531 50.487 61.77 21.237 21.243 43.174 39.168 61.763 50.483 20.722 12.612 29.812 12.326 31.731 10.412 1.914-1.919 2.2-11.009-10.412-31.731-11.315-18.589-29.24-40.526-50.488-61.763-21.237-21.244-43.174-39.174-61.762-50.49C21.142 47.083 12.05 47.37 10.138 49.283c-1.915 1.914-2.205 11.01 10.406 31.727zm43.94 68.317C22.866 107.714-11.413 57.736 3.588 42.735L42.737 3.587c14.995-14.995 64.973 19.278 106.591 60.896 41.612 41.613 75.891 91.591 60.89 106.591l-39.147 39.148c-14.996 14.995-64.974-19.283-106.587-60.896z"/></defs></svg>