<svg width="27" height="31" viewBox="0 0 27 31" xmlns="http://www.w3.org/2000/svg" xmlns:xlink="http://www.w3.org/1999/xlink"><title>Polygon</title><desc>Created using Figma</desc><g transform="translate(5396 117)"><mask id="b"><use xlink:href="#a" fill="#fff" transform="rotate(-82.393 -2749.162 3037.227)"/></mask><g mask="url(#b)"><use xlink:href="#c" transform="rotate(-82.393 -2749.162 3037.227)"/></g></g><defs><path id="a" d="M13.423 0l13.424 23.25H0L13.423 0z"/><path id="c" d="M13.423 0l.866-.5-.866-1.5-.866 1.5.866.5zm13.424 23.25v1h1.732l-.866-1.5-.866.5zM0 23.25l-.866-.5-.866 1.5H0v-1zM12.557.5l13.424 23.25 1.732-1L14.289-.5l-1.732 1zm14.29 21.75H0v2h26.847v-2zM.866 23.75L14.289.5l-1.732-1L-.866 22.75l1.732 1z"/></defs></svg>