<svg width="17" height="17" viewBox="0 0 17 17" xmlns="http://www.w3.org/2000/svg" xmlns:xlink="http://www.w3.org/1999/xlink"><title>path44</title><desc>Created using Figma</desc><use xlink:href="#a" transform="scale(.125 -.125) rotate(48.48 240.414 -12.19)" fill="#3C3C3D"/><defs><path id="a" d="M141.492 98.494H98.5v43.01c0 10.217-8.291 18.495-18.507 18.495-10.216 0-18.494-8.278-18.494-18.495v-43.01H18.494C8.277 98.494 0 90.216 0 80s8.277-18.494 18.494-18.494h43.005v-43.01C61.499 8.263 69.776 0 79.993 0 90.209 0 98.5 8.263 98.5 18.495v43.01h42.992c10.216 0 18.507 8.277 18.507 18.494 0 10.218-8.291 18.495-18.507 18.495z"/></defs></svg>