<svg width="28" height="28" viewBox="0 0 28 28" xmlns="http://www.w3.org/2000/svg" xmlns:xlink="http://www.w3.org/1999/xlink"><title>path410</title><desc>Created using Figma</desc><use xlink:href="#a" transform="matrix(.12485 .00617 .00617 -.12485 .14 26.689)" fill="#3C3C3D"/><defs><path id="a" d="M203.676 164.525c1.914-1.914 2.2-11.009-10.412-31.726-11.316-18.594-29.246-40.53-50.489-61.768C121.537 49.788 99.6 31.858 81.012 20.543 60.289 7.936 51.199 8.222 49.285 10.136L19.6 39.826l.71.163.801.189c.664.158 1.337.341 2.021.546l.597.168a55.59 55.59 0 0 1 2.7.893l.634.23c.73.27 1.47.556 2.215.852l.908.378c.72.301 1.46.623 2.2.954l.78.352c.991.455 2.001.935 3.027 1.45l.5.255c.868.434 1.746.888 2.63 1.363l.984.541c.781.424 1.567.858 2.353 1.302l.94.535a151.69 151.69 0 0 1 3.276 1.945l.179.107c1.056.638 2.118 1.302 3.18 1.986l1.025.653c.827.53 1.654 1.077 2.491 1.633l1.057.7c1.03.694 2.067 1.403 3.113 2.128l.363.25a253.03 253.03 0 0 1 3.516 2.496l1.01.735c.869.633 1.741 1.276 2.62 1.924l1.137.852c.97.725 1.94 1.47 2.915 2.215l.7.541c1.198.924 2.398 1.868 3.608 2.828l.959.77a344.92 344.92 0 0 1 2.73 2.206l1.175.97c.934.765 1.868 1.54 2.807 2.327l.888.745a283.21 283.21 0 0 1 3.654 3.124l.776.668c.97.842 1.94 1.69 2.904 2.547l1.18 1.046a602.17 602.17 0 0 1 2.684 2.41l1.031.939c1.21 1.102 2.42 2.204 3.619 3.327l.526.495c1.04.97 2.077 1.945 3.103 2.925l1.128 1.077c.873.832 1.735 1.674 2.603 2.511l1.077 1.051a585.622 585.622 0 0 1 3.547 3.502 555.825 555.825 0 0 1 3.496 3.542l1.052 1.077c.842.867 1.679 1.735 2.511 2.608l1.077 1.123c.985 1.031 1.955 2.067 2.929 3.103l.49.526a532.239 532.239 0 0 1 3.333 3.618l.935 1.036a323.55 323.55 0 0 1 2.409 2.68l1.046 1.179a341.8 341.8 0 0 1 2.547 2.909l.673.771c1.057 1.22 2.093 2.44 3.119 3.654l.75.899c.786.929 1.557 1.863 2.328 2.797l.964 1.179c.746.908 1.475 1.811 2.205 2.725l.776.965c.96 1.204 1.899 2.404 2.828 3.603l.546.71c.745.974 1.48 1.939 2.205 2.904l.857 1.143c.648.873 1.287 1.74 1.919 2.608l.74 1.021a367.96 367.96 0 0 1 2.496 3.511l.261.383a200.518 200.518 0 0 1 2.108 3.093l.709 1.062a197.65 197.65 0 0 1 1.628 2.485l.659 1.031a211.824 211.824 0 0 1 1.97 3.15l.127.209a191.186 191.186 0 0 1 1.93 3.271l.546.945c.444.791.878 1.572 1.301 2.342l.536 1.001c.47.873.924 1.745 1.363 2.608l.265.52a112.17 112.17 0 0 1 1.445 3.022l.347.781c.337.74.653 1.475.959 2.2l.373.908c.301.745.582 1.48.847 2.205l.24.638c.327.924.628 1.817.893 2.705l.169.587c.199.689.383 1.368.546 2.031l.184.792.173.719 29.685-29.684zM20.545 81.009c11.315 18.594 29.245 40.53 50.488 61.768 21.238 21.242 43.175 39.168 61.764 50.483 20.722 12.612 29.812 12.326 31.732 10.412 1.914-1.919 2.199-11.009-10.413-31.731-11.315-18.589-29.241-40.525-50.489-61.763C82.39 88.935 60.453 71.005 41.864 59.69 21.142 47.083 12.052 47.369 10.138 49.283c-1.914 1.914-2.205 11.01 10.407 31.726zm43.94 68.316c-41.618-41.612-75.897-91.59-60.896-106.59L42.737 3.586c14.995-14.995 64.974 19.278 106.592 60.895 41.613 41.613 75.891 91.591 60.891 106.591l-39.148 39.147c-14.996 14.996-64.974-19.282-106.587-60.895z"/></defs></svg>