<svg width="16" height="11" viewBox="0 0 16 11" xmlns="http://www.w3.org/2000/svg" xmlns:xlink="http://www.w3.org/1999/xlink"><title>Vector</title><desc>Created using Figma</desc><use xlink:href="#a" transform="translate(.09 .06)" fill="#767676"/><defs><path id="a" d="M7.48 0C3.446 0 0 4.988 0 4.988s3.443 4.988 7.48 4.988c4.035 0 7.48-4.988 7.48-4.988S11.518 0 7.48 0zm0 8.73c-2.328 0-4.718-2.284-5.922-3.742C2.76 3.53 5.143 1.248 7.48 1.248c2.328 0 4.718 2.282 5.922 3.74-1.2 1.459-3.585 3.741-5.922 3.741zm0-6.236a2.494 2.494 0 1 0 .001 4.988 2.494 2.494 0 0 0 0-4.988zm0 3.741c-.764 0-1.246-.483-1.246-1.247 0-.764.482-1.247 1.246-1.247s1.247.483 1.247 1.247c0 .764-.483 1.247-1.247 1.247z"/></defs></svg>