<svg width="28" height="17" viewBox="0 0 28 17" xmlns="http://www.w3.org/2000/svg" xmlns:xlink="http://www.w3.org/1999/xlink"><title>Shape Copy 9</title><desc>Created using Figma</desc><use xlink:href="#a" transform="translate(0 .8)" fill="url(#b)"/><defs><linearGradient id="b" x2="1" gradientUnits="userSpaceOnUse" gradientTransform="matrix(0 15.9649 -27.8183 0 27.818 0)"><stop offset="0" stop-color="#FF005C"/><stop offset="1" stop-color="#FF005C" stop-opacity=".78"/></linearGradient><path id="a" d="M24.796 11.02c2.234 2.088 2.695 3.088 2.768 3.219.922 1.537-1.01 1.653-1.01 1.653l-3.719.058s-.807.16-1.845-.566c-1.398-.957-2.739-3.465-3.734-3.132-1.023.334-.994 2.582-.994 2.582s0 .319-.231.565c-.26.276-.764.174-.764.174h-1.658s-3.676.377-6.89-3.002C3.186 8.89.072 1.64.072 1.64S-.1 1.204.087.957C.303.725.91.725.91.725h3.979s.389 0 .634.232c.216.16.346.493.346.493s.634 1.61 1.5 3.088c1.657 2.886 2.421 3.51 2.954 3.205.865-.45.62-4.075.62-4.075s.015-1.319-.418-1.899c-.331-.45-.966-.594-1.24-.623-.23-.03.145-.551.62-.798C10.625 0 11.88 0 13.38 0c1.167 0 1.499.087 1.946.189 1.384.333.908 1.624.908 4.697 0 1.001-.144 2.364.533 2.843.303.202 1.053.029 2.927-3.147.864-1.508 1.528-3.292 1.528-3.292s.144-.304.36-.449c.23-.116.548-.116.548-.116h4.18s1.269-.145 1.47.42c.217.595-.475 2.002-2.19 4.278-2.797 3.77-3.114 3.422-.793 5.597z"/></defs></svg>