<?xml version="1.0" standalone="no"?>
<!DOCTYPE svg PUBLIC "-//W3C//DTD SVG 20010904//EN"
 "http://www.w3.org/TR/2001/REC-SVG-20010904/DTD/svg10.dtd">
<svg version="1.0" xmlns="http://www.w3.org/2000/svg"
 width="260.000000pt" height="260.000000pt" viewBox="0 0 260.000000 260.000000"
 preserveAspectRatio="xMidYMid meet">
<metadata>
Created by potrace 1.11, written by Peter Selinger 2001-2013
</metadata>
<g transform="translate(0.000000,260.000000) scale(0.100000,-0.100000)"
fill="#000000" stroke="none">
<path d="M0 1300 l0 -1300 1300 0 1300 0 0 1300 0 1300 -1300 0 -1300 0 0
-1300z m1875 525 c131 -34 242 -121 291 -229 42 -92 50 -253 19 -392 -45 -200
-161 -422 -265 -504 -84 -66 -224 -106 -305 -86 l-27 7 40 28 c46 34 104 91
141 141 14 19 47 60 72 90 43 50 85 123 109 186 9 22 8 24 -9 14 -37 -19 -41
-12 -41 69 0 78 0 79 31 91 39 17 75 71 90 135 25 114 -47 235 -160 269 -30 9
-64 16 -76 16 -16 0 -29 17 -56 73 -20 39 -37 77 -38 82 -5 26 100 31 184 10z
m-1193 -244 c126 -49 239 -202 238 -320 -2 -191 -5 -217 -31 -271 -14 -30 -47
-81 -72 -112 -47 -58 -47 -58 -22 -64 39 -10 184 14 239 39 28 13 66 39 85 58
31 31 81 119 81 144 0 6 35 27 78 47 42 21 87 45 100 54 l22 16 0 -48 c-1
-142 -58 -280 -156 -374 -131 -126 -322 -172 -580 -140 -115 15 -187 35 -282
80 -225 107 -322 314 -268 572 35 163 132 282 274 335 57 21 222 12 294 -16z
m1648 -196 c42 -22 104 -104 131 -172 33 -85 33 -253 0 -338 -57 -142 -233
-246 -456 -270 l-60 -6 86 85 c67 67 92 86 114 86 57 0 167 78 188 132 4 11
12 15 22 12 13 -5 15 5 15 61 0 53 -3 66 -14 62 -10 -4 -16 6 -21 38 -3 25
-19 69 -34 99 -25 50 -27 60 -20 123 5 37 8 76 8 86 1 21 4 21 41 2z"/>
<path d="M458 1401 c-107 -35 -168 -129 -168 -260 0 -76 18 -125 64 -178 115
-130 287 -102 356 59 79 184 -6 364 -180 383 -25 2 -57 0 -72 -4z"/>
</g>
</svg>
