<svg xmlns="http://www.w3.org/2000/svg" xmlns:xlink="http://www.w3.org/1999/xlink" preserveAspectRatio="xMidYMid" width="12.81" height="20" viewBox="0 0 12.81 20">
  <defs>
    <style>
      .cls-1 {
        fill: #fff;
        fill-rule: evenodd;
      }
    </style>
  </defs>
  <path d="M0.003,9.991 C0.003,9.356 0.259,8.758 0.724,8.309 L8.608,0.684 C9.567,-0.243 11.127,-0.243 12.086,0.685 C12.551,1.134 12.807,1.731 12.807,2.366 C12.807,3.002 12.551,3.599 12.086,4.048 L5.941,9.991 L12.086,15.934 C12.551,16.383 12.807,16.981 12.807,17.616 C12.807,18.251 12.551,18.849 12.086,19.298 C11.622,19.747 11.004,19.995 10.347,19.995 C9.690,19.995 9.072,19.747 8.608,19.298 L0.724,11.674 C0.259,11.224 0.003,10.627 0.003,9.991 Z" class="cls-1"/>
</svg>
