<svg xmlns="http://www.w3.org/2000/svg" xmlns:xlink="http://www.w3.org/1999/xlink" preserveAspectRatio="xMidYMid" width="33" height="36" viewBox="0 0 33 36">
  <defs>
    <style>
      .cls-1 {
        fill: #8fc63d;
        fill-rule: evenodd;
      }
    </style>
  </defs>
  <path d="M29.500,36.000 C27.567,36.000 26.000,34.433 26.000,32.500 L26.000,10.500 C26.000,8.567 27.567,7.000 29.500,7.000 C31.433,7.000 33.000,8.567 33.000,10.500 L33.000,32.500 C33.000,34.433 31.433,36.000 29.500,36.000 ZM16.500,36.000 C14.567,36.000 13.000,34.433 13.000,32.500 L13.000,3.500 C13.000,1.567 14.567,-0.000 16.500,-0.000 C18.433,-0.000 20.000,1.567 20.000,3.500 L20.000,32.500 C20.000,34.433 18.433,36.000 16.500,36.000 ZM3.500,36.000 C1.567,36.000 -0.000,34.433 -0.000,32.500 L-0.000,19.500 C-0.000,17.567 1.567,16.000 3.500,16.000 C5.433,16.000 7.000,17.567 7.000,19.500 L7.000,32.500 C7.000,34.433 5.433,36.000 3.500,36.000 ZM3.500,14.000 C1.567,14.000 -0.000,12.433 -0.000,10.500 C-0.000,8.567 1.567,7.000 3.500,7.000 C5.433,7.000 7.000,8.567 7.000,10.500 C7.000,12.433 5.433,14.000 3.500,14.000 Z" class="cls-1"/>
</svg>
