<svg xmlns="http://www.w3.org/2000/svg" xmlns:xlink="http://www.w3.org/1999/xlink" preserveAspectRatio="xMidYMid" width="12.81" height="20" viewBox="0 0 12.81 20">
  <defs>
    <style>
      .cls-1 {
        fill: #fff;
        fill-rule: evenodd;
      }
    </style>
  </defs>
  <path d="M12.806,9.991 C12.806,9.356 12.551,8.758 12.086,8.309 L4.202,0.684 C3.243,-0.243 1.683,-0.243 0.724,0.685 C0.259,1.134 0.003,1.731 0.003,2.366 C0.003,3.002 0.259,3.599 0.724,4.048 L6.868,9.991 L0.724,15.934 C0.259,16.383 0.003,16.981 0.003,17.616 C0.003,18.251 0.259,18.849 0.724,19.298 C1.188,19.747 1.806,19.995 2.463,19.995 C3.120,19.995 3.737,19.747 4.202,19.298 L12.086,11.674 C12.551,11.224 12.806,10.627 12.806,9.991 Z" class="cls-1"/>
</svg>
